<?xml version="1.0" encoding="UTF-8"?>
<svg xmlns="http://www.w3.org/2000/svg" xmlns:xlink="http://www.w3.org/1999/xlink" width="756pt" height="504pt" viewBox="0 0 756 504" version="1.1">
<g id="surface34">
<rect x="0" y="0" width="756" height="504" style="fill:rgb(100%,100%,100%);fill-opacity:1;stroke:none;"/>
<path style="fill:none;stroke-width:1.066978;stroke-linecap:butt;stroke-linejoin:round;stroke:rgb(0%,0%,0%);stroke-opacity:1;stroke-miterlimit:10;" d="M 89.132812 436.925781 L 101.964844 436.925781 L 108.378906 436.921875 L 114.796875 436.917969 L 127.625 436.902344 L 134.042969 436.886719 L 140.457031 436.867188 L 146.871094 436.835938 L 153.289062 436.789062 L 159.703125 436.71875 L 166.117188 436.621094 L 172.53125 436.476562 L 178.949219 436.277344 L 185.363281 436 L 191.777344 435.613281 L 198.195312 435.085938 L 204.609375 434.375 L 211.023438 433.425781 L 217.441406 432.171875 L 223.855469 430.535156 L 230.269531 428.421875 L 236.683594 425.726562 L 243.101562 422.320312 L 249.515625 418.078125 L 255.929688 412.847656 L 262.347656 406.476562 L 268.761719 398.816406 L 275.175781 389.707031 L 281.59375 379.019531 L 288.007812 366.628906 L 294.421875 352.457031 L 300.839844 336.457031 L 307.253906 318.644531 L 313.667969 299.082031 L 320.082031 277.914062 L 326.5 255.359375 L 332.914062 231.710938 L 339.328125 207.335938 L 345.746094 182.675781 L 352.160156 158.222656 L 358.574219 134.519531 L 364.992188 112.128906 L 371.40625 91.625 L 377.820312 73.554688 L 384.234375 58.417969 L 390.652344 46.652344 L 397.066406 38.605469 L 403.480469 34.519531 L 409.898438 34.519531 L 416.3125 38.605469 L 422.726562 46.652344 L 429.144531 58.417969 L 435.558594 73.554688 L 441.972656 91.625 L 448.390625 112.128906 L 454.804688 134.519531 L 461.21875 158.222656 L 467.632812 182.675781 L 474.050781 207.335938 L 480.464844 231.710938 L 486.878906 255.359375 L 493.296875 277.914062 L 499.710938 299.082031 L 506.125 318.644531 L 512.542969 336.457031 L 518.957031 352.457031 L 525.371094 366.628906 L 531.785156 379.019531 L 538.203125 389.707031 L 544.617188 398.816406 L 551.03125 406.476562 L 557.449219 412.847656 L 563.863281 418.078125 L 570.277344 422.320312 L 576.695312 425.726562 L 583.109375 428.421875 L 589.523438 430.535156 L 595.941406 432.171875 L 602.355469 433.425781 L 608.769531 434.375 L 615.183594 435.085938 L 621.601562 435.613281 L 628.015625 436 L 634.429688 436.277344 L 640.847656 436.476562 L 647.261719 436.621094 L 653.675781 436.71875 L 660.09375 436.789062 L 666.507812 436.835938 L 672.921875 436.867188 L 679.335938 436.886719 L 685.753906 436.902344 L 698.582031 436.917969 L 705 436.921875 L 711.414062 436.925781 L 724.246094 436.925781 "/>
<path style="fill:none;stroke-width:0.533489;stroke-linecap:round;stroke-linejoin:round;stroke:rgb(70.196078%,70.196078%,70.196078%);stroke-opacity:1;stroke-miterlimit:10;" d="M 57.378906 457.046875 L 57.378906 14.398438 "/>
<path style="fill:none;stroke-width:0.533489;stroke-linecap:round;stroke-linejoin:round;stroke:rgb(70.196078%,70.196078%,70.196078%);stroke-opacity:1;stroke-miterlimit:10;" d="M 62.777344 23.753906 L 57.378906 14.398438 L 51.980469 23.753906 "/>
<path style="fill:none;stroke-width:0.533489;stroke-linecap:round;stroke-linejoin:round;stroke:rgb(70.196078%,70.196078%,70.196078%);stroke-opacity:1;stroke-miterlimit:10;" d="M 57.378906 457.046875 L 756 457.046875 "/>
<path style="fill:none;stroke-width:0.533489;stroke-linecap:round;stroke-linejoin:round;stroke:rgb(70.196078%,70.196078%,70.196078%);stroke-opacity:1;stroke-miterlimit:10;" d="M 746.648438 462.445312 L 756 457.046875 L 746.648438 451.648438 "/>
<path style=" stroke:none;fill-rule:nonzero;fill:rgb(0%,0%,0%);fill-opacity:1;" d="M 717.667969 471.71875 L 717.832031 471.722656 L 717.996094 471.734375 L 718.152344 471.75 L 718.304688 471.773438 L 718.457031 471.804688 L 718.601562 471.84375 L 718.746094 471.886719 L 718.882812 471.941406 L 719.019531 472 L 719.148438 472.0625 L 719.277344 472.132812 L 719.398438 472.210938 L 719.515625 472.292969 L 719.628906 472.378906 L 719.738281 472.472656 L 719.84375 472.574219 L 719.945312 472.683594 L 720.042969 472.796875 L 720.136719 472.914062 L 720.222656 473.039062 L 720.308594 473.171875 L 720.386719 473.3125 L 720.460938 473.453125 L 720.53125 473.605469 L 720.597656 473.761719 L 720.660156 473.921875 L 720.71875 474.089844 L 720.773438 474.265625 L 720.824219 474.445312 L 720.867188 474.628906 L 720.910156 474.820312 L 720.949219 475.015625 L 720.984375 475.214844 L 721.011719 475.421875 L 721.039062 475.632812 L 721.058594 475.847656 L 721.074219 476.070312 L 721.085938 476.296875 L 721.089844 476.53125 L 721.09375 476.769531 L 721.089844 477.050781 L 721.082031 477.335938 L 721.066406 477.632812 L 721.042969 477.933594 L 721.015625 478.246094 L 720.980469 478.5625 L 720.941406 478.886719 L 720.894531 479.21875 L 720.839844 479.558594 L 720.78125 479.90625 L 720.640625 480.644531 L 720.484375 481.34375 L 720.3125 482.003906 L 720.125 482.621094 L 719.921875 483.203125 L 719.703125 483.742188 L 719.472656 484.246094 L 719.222656 484.707031 L 718.957031 485.128906 L 718.675781 485.511719 L 718.382812 485.855469 L 718.078125 486.164062 L 717.753906 486.433594 L 717.417969 486.667969 L 717.066406 486.867188 L 716.703125 487.027344 L 716.324219 487.15625 L 715.929688 487.246094 L 715.523438 487.300781 L 715.097656 487.316406 L 714.9375 487.3125 L 714.78125 487.304688 L 714.628906 487.289062 L 714.480469 487.265625 L 714.335938 487.238281 L 714.191406 487.203125 L 714.054688 487.160156 L 713.925781 487.109375 L 713.796875 487.054688 L 713.671875 486.996094 L 713.550781 486.925781 L 713.4375 486.851562 L 713.328125 486.769531 L 713.222656 486.683594 L 713.121094 486.589844 L 713.023438 486.492188 L 712.929688 486.386719 L 712.839844 486.277344 L 712.753906 486.160156 L 712.671875 486.039062 L 712.59375 485.910156 L 712.519531 485.773438 L 712.449219 485.632812 L 712.382812 485.488281 L 712.324219 485.339844 L 712.265625 485.183594 L 712.210938 485.019531 L 712.160156 484.851562 L 712.113281 484.679688 L 712.070312 484.503906 L 712.035156 484.320312 L 712 484.132812 L 711.945312 483.742188 L 711.925781 483.539062 L 711.90625 483.332031 L 711.882812 482.902344 L 711.878906 482.679688 L 711.875 482.449219 L 711.878906 482.296875 L 711.878906 482.140625 L 711.882812 481.984375 L 711.890625 481.828125 L 711.894531 481.667969 L 711.902344 481.503906 L 711.925781 481.175781 L 711.9375 481.007812 L 711.953125 480.839844 L 711.96875 480.667969 L 711.988281 480.496094 L 712.058594 479.96875 L 712.085938 479.785156 L 712.113281 479.605469 L 712.144531 479.421875 L 712.175781 479.234375 L 712.210938 479.046875 L 712.351562 478.3125 L 712.503906 477.617188 L 712.671875 476.964844 L 712.855469 476.347656 L 713.054688 475.773438 L 713.265625 475.242188 L 713.488281 474.746094 L 713.730469 474.292969 L 713.984375 473.878906 L 714.25 473.503906 L 714.535156 473.164062 L 714.832031 472.859375 L 715.140625 472.59375 L 715.460938 472.363281 L 715.796875 472.164062 L 716.144531 472.003906 L 716.507812 471.878906 L 716.878906 471.789062 L 717.265625 471.738281 Z M 717.589844 472.578125 L 717.453125 472.582031 L 717.316406 472.597656 L 717.183594 472.617188 L 717.054688 472.648438 L 716.929688 472.6875 L 716.808594 472.734375 L 716.695312 472.789062 L 716.582031 472.855469 L 716.472656 472.925781 L 716.367188 473.007812 L 716.265625 473.097656 L 716.167969 473.195312 L 716.074219 473.300781 L 715.980469 473.417969 L 715.890625 473.539062 L 715.800781 473.667969 L 715.714844 473.804688 L 715.628906 473.949219 L 715.546875 474.105469 L 715.464844 474.265625 L 715.386719 474.433594 L 715.3125 474.613281 L 715.242188 474.796875 L 715.167969 474.988281 L 715.097656 475.1875 L 715.03125 475.394531 L 714.964844 475.609375 L 714.902344 475.828125 L 714.839844 476.058594 L 714.777344 476.296875 L 714.71875 476.539062 L 714.660156 476.789062 L 714.605469 477.046875 L 714.546875 477.3125 L 714.492188 477.585938 L 714.4375 477.863281 L 714.382812 478.148438 L 714.328125 478.441406 L 714.273438 478.738281 L 714.21875 479.046875 L 718.914062 479.046875 L 718.96875 478.664062 L 718.996094 478.476562 L 719.023438 478.292969 L 719.046875 478.109375 L 719.09375 477.75 L 719.113281 477.574219 L 719.132812 477.402344 L 719.164062 477.058594 L 719.179688 476.890625 L 719.203125 476.5625 L 719.214844 476.402344 L 719.222656 476.246094 L 719.226562 476.089844 L 719.230469 475.9375 L 719.234375 475.789062 L 719.234375 475.5 L 719.226562 475.226562 L 719.21875 475.09375 L 719.210938 474.964844 L 719.1875 474.714844 L 719.171875 474.59375 L 719.15625 474.476562 L 719.136719 474.363281 L 719.121094 474.25 L 719.101562 474.140625 L 719.078125 474.035156 L 719.050781 473.9375 L 719.027344 473.839844 L 718.996094 473.746094 L 718.933594 473.566406 L 718.898438 473.484375 L 718.820312 473.328125 L 718.777344 473.253906 L 718.734375 473.183594 L 718.6875 473.117188 L 718.636719 473.054688 L 718.585938 472.996094 L 718.53125 472.9375 L 718.472656 472.886719 L 718.355469 472.792969 L 718.222656 472.714844 L 718.15625 472.683594 L 718.082031 472.65625 L 718.007812 472.632812 L 717.929688 472.613281 L 717.851562 472.597656 L 717.765625 472.585938 L 717.679688 472.582031 Z M 714.058594 479.992188 L 714.023438 480.199219 L 713.960938 480.605469 L 713.933594 480.808594 L 713.90625 481.007812 L 713.878906 481.203125 L 713.855469 481.398438 L 713.808594 481.78125 L 713.789062 481.96875 L 713.769531 482.152344 L 713.753906 482.332031 L 713.738281 482.507812 L 713.726562 482.683594 L 713.714844 482.855469 L 713.707031 483.027344 L 713.699219 483.191406 L 713.695312 483.355469 L 713.691406 483.515625 L 713.691406 483.800781 L 713.695312 483.925781 L 713.699219 484.046875 L 713.703125 484.164062 L 713.710938 484.28125 L 713.71875 484.394531 L 713.753906 484.722656 L 713.765625 484.824219 L 713.785156 484.925781 L 713.800781 485.023438 L 713.820312 485.121094 L 713.84375 485.214844 L 713.867188 485.304688 L 713.890625 485.390625 L 713.921875 485.472656 L 713.949219 485.554688 L 713.980469 485.632812 L 714.015625 485.707031 L 714.050781 485.777344 L 714.085938 485.84375 L 714.128906 485.910156 L 714.167969 485.972656 L 714.214844 486.03125 L 714.257812 486.085938 L 714.359375 486.1875 L 714.410156 486.234375 L 714.464844 486.273438 L 714.523438 486.3125 L 714.582031 486.34375 L 714.644531 486.375 L 714.707031 486.398438 L 714.773438 486.421875 L 714.914062 486.453125 L 714.988281 486.460938 L 715.0625 486.464844 L 715.140625 486.46875 L 715.28125 486.464844 L 715.414062 486.449219 L 715.546875 486.429688 L 715.675781 486.398438 L 715.804688 486.359375 L 715.925781 486.308594 L 716.046875 486.253906 L 716.164062 486.1875 L 716.277344 486.113281 L 716.386719 486.027344 L 716.5 485.9375 L 716.605469 485.835938 L 716.710938 485.730469 L 716.816406 485.613281 L 716.914062 485.492188 L 717.011719 485.359375 L 717.109375 485.222656 L 717.199219 485.074219 L 717.289062 484.921875 L 717.375 484.761719 L 717.464844 484.589844 L 717.546875 484.410156 L 717.632812 484.226562 L 717.710938 484.03125 L 717.789062 483.832031 L 717.867188 483.625 L 717.941406 483.410156 L 718.011719 483.1875 L 718.082031 482.957031 L 718.148438 482.71875 L 718.214844 482.476562 L 718.28125 482.226562 L 718.34375 481.96875 L 718.40625 481.707031 L 718.46875 481.4375 L 718.527344 481.160156 L 718.585938 480.878906 L 718.640625 480.589844 L 718.699219 480.292969 L 718.75 479.992188 Z M 714.058594 479.992188 "/>
<path style=" stroke:none;fill-rule:nonzero;fill:rgb(0%,0%,0%);fill-opacity:1;" d="M 719.5 470.207031 L 716.179688 463.40625 L 712.890625 470.207031 L 711.152344 470.207031 L 715.105469 462.300781 L 717.285156 462.300781 L 721.261719 470.207031 Z M 719.5 470.207031 "/>
<path style=" stroke:none;fill-rule:nonzero;fill:rgb(0%,0%,0%);fill-opacity:1;" d="M 1.804688 51.445312 L 1.804688 36.308594 L 3.855469 36.308594 L 3.855469 49.769531 L 11.503906 49.769531 L 11.503906 51.445312 Z M 1.804688 51.445312 "/>
<path style=" stroke:none;fill-rule:nonzero;fill:rgb(0%,0%,0%);fill-opacity:1;" d="M 13.601562 45.730469 L 13.601562 45.429688 L 13.609375 45.136719 L 13.621094 44.84375 L 13.636719 44.554688 L 13.65625 44.269531 L 13.679688 43.984375 L 13.742188 43.421875 L 13.78125 43.144531 L 13.824219 42.871094 L 13.871094 42.597656 L 13.925781 42.328125 L 13.984375 42.0625 L 14.046875 41.796875 L 14.1875 41.273438 L 14.265625 41.015625 L 14.351562 40.757812 L 14.441406 40.503906 L 14.535156 40.25 L 14.632812 40 L 14.738281 39.75 L 14.847656 39.503906 L 14.964844 39.257812 L 15.085938 39.011719 L 15.210938 38.769531 L 15.34375 38.527344 L 15.480469 38.289062 L 15.621094 38.050781 L 15.769531 37.8125 L 15.921875 37.574219 L 16.082031 37.339844 L 16.246094 37.109375 L 16.417969 36.875 L 16.59375 36.644531 L 16.777344 36.414062 L 16.964844 36.183594 L 17.160156 35.957031 L 17.359375 35.726562 L 17.5625 35.503906 L 19.433594 35.503906 L 19.234375 35.726562 L 19.039062 35.957031 L 18.851562 36.183594 L 18.667969 36.414062 L 18.488281 36.644531 L 18.316406 36.878906 L 17.988281 37.347656 L 17.832031 37.585938 L 17.679688 37.824219 L 17.539062 38.058594 L 17.398438 38.296875 L 17.265625 38.539062 L 17.136719 38.78125 L 17.015625 39.027344 L 16.898438 39.269531 L 16.785156 39.519531 L 16.574219 40.019531 L 16.476562 40.273438 L 16.386719 40.523438 L 16.300781 40.777344 L 16.214844 41.035156 L 16.136719 41.292969 L 16.066406 41.554688 L 15.996094 41.820312 L 15.933594 42.082031 L 15.875 42.351562 L 15.820312 42.621094 L 15.769531 42.894531 L 15.726562 43.167969 L 15.6875 43.445312 L 15.65625 43.722656 L 15.625 44.003906 L 15.601562 44.289062 L 15.578125 44.578125 L 15.5625 44.867188 L 15.554688 45.15625 L 15.546875 45.453125 L 15.542969 45.75 L 15.546875 46.046875 L 15.554688 46.34375 L 15.5625 46.632812 L 15.578125 46.925781 L 15.625 47.496094 L 15.6875 48.058594 L 15.726562 48.332031 L 15.769531 48.609375 L 15.820312 48.878906 L 15.875 49.148438 L 15.933594 49.417969 L 15.996094 49.683594 L 16.066406 49.949219 L 16.136719 50.210938 L 16.214844 50.46875 L 16.300781 50.730469 L 16.386719 50.984375 L 16.476562 51.238281 L 16.574219 51.492188 L 16.785156 51.992188 L 16.898438 52.238281 L 17.015625 52.484375 L 17.136719 52.730469 L 17.265625 52.972656 L 17.398438 53.210938 L 17.539062 53.453125 L 17.679688 53.6875 L 17.832031 53.925781 L 17.988281 54.160156 L 18.152344 54.394531 L 18.316406 54.625 L 18.488281 54.855469 L 18.667969 55.085938 L 18.851562 55.316406 L 19.039062 55.546875 L 19.234375 55.773438 L 19.433594 56 L 17.5625 56 L 17.359375 55.773438 L 17.160156 55.546875 L 16.964844 55.316406 L 16.777344 55.085938 L 16.59375 54.855469 L 16.417969 54.625 L 16.246094 54.394531 L 16.082031 54.160156 L 15.921875 53.925781 L 15.769531 53.6875 L 15.621094 53.453125 L 15.480469 53.214844 L 15.34375 52.972656 L 15.210938 52.730469 L 15.085938 52.488281 L 14.964844 52.242188 L 14.847656 51.996094 L 14.738281 51.75 L 14.632812 51.5 L 14.535156 51.25 L 14.441406 50.996094 L 14.351562 50.742188 L 14.265625 50.488281 L 14.1875 50.230469 L 14.046875 49.707031 L 13.984375 49.441406 L 13.925781 49.175781 L 13.871094 48.910156 L 13.824219 48.640625 L 13.78125 48.367188 L 13.742188 48.089844 L 13.679688 47.527344 L 13.65625 47.242188 L 13.636719 46.953125 L 13.621094 46.660156 L 13.609375 46.367188 L 13.601562 46.070312 Z M 13.601562 45.730469 "/>
<path style=" stroke:none;fill-rule:nonzero;fill:rgb(0%,0%,0%);fill-opacity:1;" d="M 26.425781 36.0625 L 26.589844 36.0625 L 26.753906 36.074219 L 26.910156 36.089844 L 27.066406 36.117188 L 27.214844 36.148438 L 27.363281 36.183594 L 27.503906 36.230469 L 27.644531 36.28125 L 27.777344 36.339844 L 28.035156 36.472656 L 28.15625 36.550781 L 28.277344 36.632812 L 28.390625 36.722656 L 28.5 36.816406 L 28.605469 36.917969 L 28.707031 37.023438 L 28.800781 37.136719 L 28.894531 37.257812 L 28.984375 37.382812 L 29.066406 37.515625 L 29.144531 37.652344 L 29.222656 37.796875 L 29.292969 37.945312 L 29.359375 38.101562 L 29.421875 38.265625 L 29.480469 38.433594 L 29.53125 38.605469 L 29.582031 38.785156 L 29.667969 39.160156 L 29.707031 39.355469 L 29.742188 39.558594 L 29.769531 39.761719 L 29.796875 39.972656 L 29.816406 40.191406 L 29.832031 40.410156 L 29.84375 40.640625 L 29.851562 40.871094 L 29.851562 41.109375 L 29.847656 41.390625 L 29.839844 41.679688 L 29.824219 41.972656 L 29.800781 42.277344 L 29.773438 42.585938 L 29.742188 42.902344 L 29.699219 43.230469 L 29.652344 43.558594 L 29.601562 43.898438 L 29.539062 44.246094 L 29.398438 44.984375 L 29.242188 45.683594 L 29.070312 46.34375 L 28.882812 46.964844 L 28.683594 47.542969 L 28.464844 48.085938 L 28.230469 48.585938 L 27.980469 49.046875 L 27.714844 49.472656 L 27.4375 49.855469 L 27.144531 50.195312 L 26.835938 50.503906 L 26.511719 50.773438 L 26.175781 51.007812 L 25.828125 51.207031 L 25.460938 51.371094 L 25.082031 51.496094 L 24.6875 51.585938 L 24.28125 51.640625 L 23.859375 51.660156 L 23.695312 51.65625 L 23.539062 51.644531 L 23.386719 51.628906 L 23.238281 51.605469 L 23.09375 51.578125 L 22.953125 51.542969 L 22.816406 51.5 L 22.683594 51.453125 L 22.554688 51.398438 L 22.429688 51.335938 L 22.3125 51.265625 L 22.195312 51.191406 L 22.085938 51.109375 L 21.980469 51.023438 L 21.878906 50.929688 L 21.78125 50.832031 L 21.6875 50.726562 L 21.597656 50.617188 L 21.511719 50.5 L 21.429688 50.378906 L 21.351562 50.25 L 21.28125 50.117188 L 21.210938 49.976562 L 21.144531 49.832031 L 21.082031 49.679688 L 21.023438 49.523438 L 20.96875 49.359375 L 20.917969 49.195312 L 20.871094 49.023438 L 20.828125 48.84375 L 20.792969 48.660156 L 20.757812 48.472656 L 20.730469 48.28125 L 20.707031 48.082031 L 20.683594 47.878906 L 20.667969 47.671875 L 20.652344 47.460938 L 20.644531 47.242188 L 20.636719 47.019531 L 20.636719 46.640625 L 20.640625 46.484375 L 20.640625 46.328125 L 20.664062 45.847656 L 20.671875 45.683594 L 20.683594 45.515625 L 20.695312 45.351562 L 20.710938 45.179688 L 20.730469 45.011719 L 20.75 44.835938 L 20.769531 44.664062 L 20.792969 44.488281 L 20.820312 44.308594 L 20.84375 44.128906 L 20.875 43.945312 L 20.902344 43.761719 L 20.933594 43.574219 L 20.96875 43.386719 L 21.109375 42.652344 L 21.261719 41.957031 L 21.433594 41.304688 L 21.613281 40.691406 L 21.8125 40.117188 L 22.023438 39.582031 L 22.25 39.085938 L 22.488281 38.632812 L 22.742188 38.21875 L 23.011719 37.84375 L 23.007812 37.84375 L 23.292969 37.503906 L 23.589844 37.203125 L 23.898438 36.933594 L 24.222656 36.703125 L 24.558594 36.507812 L 24.90625 36.347656 L 25.265625 36.222656 L 25.640625 36.132812 L 26.027344 36.078125 Z M 26.351562 36.921875 L 26.210938 36.925781 L 26.074219 36.9375 L 25.941406 36.957031 L 25.8125 36.988281 L 25.691406 37.027344 L 25.570312 37.074219 L 25.453125 37.128906 L 25.339844 37.195312 L 25.230469 37.269531 L 25.125 37.351562 L 25.027344 37.441406 L 24.929688 37.539062 L 24.832031 37.644531 L 24.738281 37.757812 L 24.648438 37.878906 L 24.558594 38.007812 L 24.472656 38.144531 L 24.386719 38.292969 L 24.304688 38.445312 L 24.222656 38.605469 L 24.148438 38.777344 L 24.074219 38.953125 L 24 39.136719 L 23.929688 39.328125 L 23.859375 39.527344 L 23.789062 39.734375 L 23.722656 39.949219 L 23.660156 40.171875 L 23.597656 40.398438 L 23.535156 40.636719 L 23.476562 40.882812 L 23.421875 41.132812 L 23.363281 41.390625 L 23.308594 41.65625 L 23.25 41.925781 L 23.195312 42.203125 L 23.140625 42.488281 L 23.085938 42.78125 L 23.03125 43.082031 L 22.976562 43.386719 L 27.671875 43.386719 L 27.703125 43.195312 L 27.730469 43.003906 L 27.757812 42.816406 L 27.804688 42.449219 L 27.851562 42.089844 L 27.871094 41.914062 L 27.890625 41.742188 L 27.90625 41.570312 L 27.925781 41.402344 L 27.9375 41.234375 L 27.953125 41.066406 L 27.964844 40.90625 L 27.980469 40.585938 L 27.988281 40.429688 L 27.992188 40.277344 L 27.992188 39.703125 L 27.984375 39.570312 L 27.980469 39.4375 L 27.96875 39.308594 L 27.960938 39.179688 L 27.945312 39.058594 L 27.933594 38.9375 L 27.914062 38.820312 L 27.898438 38.703125 L 27.878906 38.589844 L 27.859375 38.484375 L 27.835938 38.378906 L 27.8125 38.277344 L 27.785156 38.179688 L 27.753906 38.085938 L 27.722656 37.996094 L 27.691406 37.910156 L 27.65625 37.828125 L 27.617188 37.746094 L 27.578125 37.667969 L 27.535156 37.59375 L 27.492188 37.523438 L 27.445312 37.457031 L 27.394531 37.394531 L 27.34375 37.335938 L 27.234375 37.226562 L 27.175781 37.179688 L 27.050781 37.09375 L 26.984375 37.058594 L 26.914062 37.027344 L 26.839844 36.996094 L 26.765625 36.972656 L 26.6875 36.953125 L 26.609375 36.941406 L 26.527344 36.929688 L 26.4375 36.921875 Z M 22.816406 44.332031 L 22.78125 44.539062 L 22.75 44.746094 L 22.71875 44.949219 L 22.664062 45.347656 L 22.636719 45.542969 L 22.613281 45.738281 L 22.566406 46.121094 L 22.546875 46.308594 L 22.53125 46.492188 L 22.511719 46.671875 L 22.5 46.851562 L 22.484375 47.027344 L 22.476562 47.199219 L 22.464844 47.367188 L 22.460938 47.535156 L 22.453125 47.699219 L 22.453125 48.265625 L 22.457031 48.386719 L 22.464844 48.503906 L 22.46875 48.621094 L 22.476562 48.734375 L 22.488281 48.847656 L 22.5 48.957031 L 22.511719 49.0625 L 22.527344 49.167969 L 22.542969 49.269531 L 22.558594 49.367188 L 22.582031 49.460938 L 22.601562 49.554688 L 22.625 49.644531 L 22.652344 49.730469 L 22.707031 49.894531 L 22.738281 49.972656 L 22.773438 50.046875 L 22.808594 50.117188 L 22.847656 50.1875 L 22.886719 50.25 L 22.929688 50.3125 L 22.972656 50.371094 L 23.066406 50.480469 L 23.167969 50.574219 L 23.226562 50.617188 L 23.28125 50.652344 L 23.339844 50.6875 L 23.402344 50.714844 L 23.535156 50.761719 L 23.601562 50.777344 L 23.671875 50.792969 L 23.746094 50.800781 L 23.824219 50.808594 L 23.902344 50.808594 L 24.039062 50.804688 L 24.175781 50.792969 L 24.308594 50.769531 L 24.4375 50.738281 L 24.5625 50.699219 L 24.683594 50.652344 L 24.804688 50.59375 L 24.921875 50.527344 L 25.035156 50.453125 L 25.148438 50.371094 L 25.257812 50.277344 L 25.367188 50.175781 L 25.472656 50.070312 L 25.574219 49.957031 L 25.675781 49.832031 L 25.769531 49.703125 L 25.867188 49.5625 L 25.957031 49.417969 L 26.046875 49.261719 L 26.136719 49.101562 L 26.222656 48.929688 L 26.308594 48.753906 L 26.390625 48.566406 L 26.472656 48.371094 L 26.550781 48.171875 L 26.625 47.964844 L 26.699219 47.75 L 26.773438 47.527344 L 26.839844 47.296875 L 26.910156 47.0625 L 26.976562 46.816406 L 27.039062 46.566406 L 27.101562 46.308594 L 27.164062 46.046875 L 27.226562 45.777344 L 27.285156 45.5 L 27.34375 45.21875 L 27.402344 44.929688 L 27.457031 44.632812 L 27.511719 44.332031 Z M 22.816406 44.332031 "/>
<path style=" stroke:none;fill-rule:nonzero;fill:rgb(0%,0%,0%);fill-opacity:1;" d="M 32.335938 56.105469 L 32.335938 35.503906 L 34.117188 35.503906 L 34.117188 56.105469 Z M 32.335938 56.105469 "/>
<path style=" stroke:none;fill-rule:nonzero;fill:rgb(0%,0%,0%);fill-opacity:1;" d="M 44.6875 51.445312 L 41.5625 46.675781 L 38.414062 51.445312 L 36.328125 51.445312 L 40.464844 45.472656 L 36.523438 39.820312 L 38.660156 39.820312 L 41.5625 44.34375 L 44.441406 39.820312 L 46.597656 39.820312 L 42.65625 45.449219 L 46.847656 51.445312 Z M 44.6875 51.445312 "/>
<path style=" stroke:none;fill-rule:nonzero;fill:rgb(0%,0%,0%);fill-opacity:1;" d="M 53.042969 45.773438 L 53.042969 46.070312 L 53.035156 46.367188 L 53.023438 46.660156 L 53.007812 46.953125 L 52.988281 47.242188 L 52.964844 47.527344 L 52.902344 48.089844 L 52.863281 48.367188 L 52.820312 48.640625 L 52.773438 48.910156 L 52.71875 49.175781 L 52.660156 49.441406 L 52.597656 49.707031 L 52.53125 49.96875 L 52.457031 50.230469 L 52.378906 50.488281 L 52.292969 50.742188 L 52.203125 50.996094 L 52.109375 51.25 L 52.011719 51.5 L 51.90625 51.75 L 51.796875 51.996094 L 51.679688 52.242188 L 51.558594 52.488281 L 51.433594 52.730469 L 51.300781 52.972656 L 51.164062 53.214844 L 51.023438 53.453125 L 50.875 53.6875 L 50.722656 53.925781 L 50.5625 54.160156 L 50.398438 54.394531 L 50.226562 54.625 L 50.050781 54.855469 L 49.867188 55.085938 L 49.679688 55.316406 L 49.484375 55.546875 L 49.285156 55.773438 L 49.082031 56 L 47.210938 56 L 47.410156 55.773438 L 47.605469 55.546875 L 47.792969 55.316406 L 47.976562 55.085938 L 48.152344 54.855469 L 48.324219 54.625 L 48.488281 54.394531 L 48.648438 54.160156 L 48.804688 53.925781 L 48.953125 53.6875 L 49.097656 53.453125 L 49.238281 53.210938 L 49.371094 52.972656 L 49.503906 52.730469 L 49.746094 52.238281 L 49.859375 51.992188 L 50.070312 51.492188 L 50.257812 50.984375 L 50.34375 50.730469 L 50.425781 50.46875 L 50.503906 50.210938 L 50.578125 49.949219 L 50.644531 49.683594 L 50.707031 49.417969 L 50.765625 49.148438 L 50.816406 48.878906 L 50.863281 48.609375 L 50.910156 48.332031 L 50.949219 48.058594 L 50.984375 47.777344 L 51.015625 47.496094 L 51.042969 47.210938 L 51.0625 46.925781 L 51.078125 46.632812 L 51.089844 46.34375 L 51.097656 46.046875 L 51.101562 45.75 L 51.097656 45.453125 L 51.089844 45.15625 L 51.078125 44.867188 L 51.0625 44.578125 L 51.042969 44.289062 L 51.015625 44.003906 L 50.984375 43.722656 L 50.949219 43.445312 L 50.910156 43.167969 L 50.816406 42.621094 L 50.765625 42.351562 L 50.707031 42.082031 L 50.644531 41.820312 L 50.578125 41.554688 L 50.503906 41.292969 L 50.425781 41.035156 L 50.34375 40.777344 L 50.257812 40.523438 L 50.164062 40.273438 L 50.070312 40.019531 L 49.859375 39.519531 L 49.746094 39.269531 L 49.625 39.027344 L 49.503906 38.78125 L 49.238281 38.296875 L 49.097656 38.058594 L 48.953125 37.824219 L 48.804688 37.585938 L 48.648438 37.347656 L 48.488281 37.113281 L 48.324219 36.878906 L 48.152344 36.644531 L 47.976562 36.414062 L 47.792969 36.183594 L 47.605469 35.957031 L 47.410156 35.726562 L 47.210938 35.503906 L 49.082031 35.503906 L 49.285156 35.726562 L 49.484375 35.957031 L 49.679688 36.183594 L 49.867188 36.414062 L 50.050781 36.644531 L 50.226562 36.875 L 50.398438 37.109375 L 50.5625 37.339844 L 50.722656 37.574219 L 50.875 37.8125 L 51.023438 38.050781 L 51.164062 38.289062 L 51.300781 38.527344 L 51.433594 38.769531 L 51.558594 39.011719 L 51.679688 39.257812 L 51.796875 39.503906 L 51.90625 39.75 L 52.011719 40 L 52.109375 40.25 L 52.203125 40.503906 L 52.292969 40.757812 L 52.378906 41.015625 L 52.457031 41.273438 L 52.53125 41.535156 L 52.597656 41.796875 L 52.660156 42.0625 L 52.71875 42.328125 L 52.773438 42.597656 L 52.820312 42.871094 L 52.863281 43.144531 L 52.902344 43.421875 L 52.964844 43.984375 L 52.988281 44.269531 L 53.007812 44.554688 L 53.023438 44.84375 L 53.035156 45.136719 L 53.042969 45.429688 Z M 53.042969 45.773438 "/>
</g>
</svg>
