<?xml version="1.0" encoding="UTF-8"?>
<svg xmlns="http://www.w3.org/2000/svg" xmlns:xlink="http://www.w3.org/1999/xlink" width="756" height="504" viewBox="0 0 756 504">
<rect x="-75.6" y="-50.4" width="907.2" height="604.8" fill="rgb(100%, 100%, 100%)" fill-opacity="1"/>
<path fill="none" stroke-width="1.066978" stroke-linecap="butt" stroke-linejoin="round" stroke="rgb(0%, 0%, 0%)" stroke-opacity="1" stroke-miterlimit="10" d="M 93.621094 437.699219 L 106.363281 437.699219 L 112.734375 437.695312 L 119.109375 437.691406 L 131.851562 437.675781 L 138.222656 437.660156 L 144.597656 437.640625 L 150.96875 437.609375 L 157.339844 437.558594 L 163.710938 437.492188 L 170.085938 437.390625 L 176.457031 437.25 L 182.828125 437.050781 L 189.199219 436.769531 L 195.574219 436.382812 L 201.945312 435.855469 L 208.316406 435.144531 L 214.6875 434.195312 L 221.0625 432.9375 L 227.433594 431.296875 L 233.804688 429.179688 L 240.175781 426.476562 L 246.550781 423.066406 L 252.921875 418.816406 L 259.292969 413.578125 L 265.667969 407.195312 L 272.039062 399.519531 L 278.410156 390.394531 L 284.78125 379.6875 L 291.15625 367.273438 L 297.527344 353.078125 L 303.898438 337.046875 L 310.269531 319.199219 L 316.644531 299.601562 L 323.015625 278.398438 L 329.386719 255.800781 L 335.757812 232.109375 L 342.132812 207.691406 L 348.503906 182.984375 L 354.875 158.484375 L 361.246094 134.738281 L 367.621094 112.308594 L 373.992188 91.765625 L 380.363281 73.660156 L 386.734375 58.496094 L 393.109375 46.710938 L 399.480469 38.648438 L 405.851562 34.558594 L 412.226562 34.558594 L 418.597656 38.648438 L 424.96875 46.710938 L 431.339844 58.496094 L 437.714844 73.660156 L 444.085938 91.765625 L 450.457031 112.308594 L 456.828125 134.738281 L 463.203125 158.484375 L 469.574219 182.984375 L 475.945312 207.691406 L 482.316406 232.109375 L 488.691406 255.800781 L 495.0625 278.398438 L 501.433594 299.601562 L 507.804688 319.199219 L 514.179688 337.046875 L 520.550781 353.078125 L 526.921875 367.273438 L 533.292969 379.6875 L 539.667969 390.394531 L 546.039062 399.519531 L 552.410156 407.195312 L 558.78125 413.578125 L 565.15625 418.816406 L 571.527344 423.066406 L 577.898438 426.476562 L 584.273438 429.179688 L 590.644531 431.296875 L 597.015625 432.9375 L 603.386719 434.195312 L 609.761719 435.144531 L 616.132812 435.855469 L 622.503906 436.382812 L 628.875 436.769531 L 635.25 437.050781 L 641.621094 437.25 L 647.992188 437.390625 L 654.363281 437.492188 L 660.738281 437.558594 L 667.109375 437.609375 L 673.480469 437.640625 L 679.851562 437.660156 L 686.226562 437.675781 L 698.96875 437.691406 L 705.339844 437.695312 L 711.714844 437.699219 L 724.457031 437.699219 "/>
<path fill="none" stroke-width="0.533489" stroke-linecap="round" stroke-linejoin="round" stroke="rgb(70.196078%, 70.196078%, 70.196078%)" stroke-opacity="1" stroke-miterlimit="10" d="M 62.078125 457.855469 L 62.078125 14.398438 "/>
<path fill="none" stroke-width="0.533489" stroke-linecap="round" stroke-linejoin="round" stroke="rgb(70.196078%, 70.196078%, 70.196078%)" stroke-opacity="1" stroke-miterlimit="10" d="M 67.476562 23.753906 L 62.078125 14.398438 L 56.675781 23.753906 "/>
<path fill="none" stroke-width="0.533489" stroke-linecap="round" stroke-linejoin="round" stroke="rgb(70.196078%, 70.196078%, 70.196078%)" stroke-opacity="1" stroke-miterlimit="10" d="M 62.078125 457.855469 L 756 457.855469 "/>
<path fill="none" stroke-width="0.533489" stroke-linecap="round" stroke-linejoin="round" stroke="rgb(70.196078%, 70.196078%, 70.196078%)" stroke-opacity="1" stroke-miterlimit="10" d="M 746.648438 463.257812 L 756 457.855469 L 746.648438 452.457031 "/>
<path fill-rule="nonzero" fill="rgb(0%, 0%, 0%)" fill-opacity="1" d="M 717.902344 472.125 L 718.066406 472.128906 L 718.230469 472.136719 L 718.386719 472.15625 L 718.542969 472.179688 L 718.691406 472.210938 L 718.835938 472.25 L 718.980469 472.292969 L 719.117188 472.34375 L 719.253906 472.402344 L 719.382812 472.46875 L 719.511719 472.539062 L 719.632812 472.613281 L 719.75 472.695312 L 719.867188 472.785156 L 719.976562 472.878906 L 720.082031 472.980469 L 720.179688 473.085938 L 720.277344 473.199219 L 720.371094 473.320312 L 720.457031 473.445312 L 720.542969 473.578125 L 720.621094 473.714844 L 720.695312 473.859375 L 720.769531 474.007812 L 720.835938 474.164062 L 720.898438 474.328125 L 720.953125 474.496094 L 721.007812 474.667969 L 721.058594 474.851562 L 721.101562 475.035156 L 721.144531 475.226562 L 721.183594 475.421875 L 721.21875 475.621094 L 721.246094 475.828125 L 721.273438 476.039062 L 721.292969 476.253906 L 721.308594 476.476562 L 721.320312 476.703125 L 721.328125 476.933594 L 721.328125 477.171875 L 721.324219 477.453125 L 721.316406 477.742188 L 721.300781 478.039062 L 721.277344 478.339844 L 721.25 478.652344 L 721.214844 478.96875 L 721.175781 479.292969 L 721.128906 479.625 L 721.078125 479.964844 L 721.015625 480.308594 L 720.875 481.046875 L 720.71875 481.746094 L 720.546875 482.40625 L 720.359375 483.027344 L 720.15625 483.609375 L 719.9375 484.148438 L 719.707031 484.652344 L 719.457031 485.113281 L 719.191406 485.535156 L 718.910156 485.917969 L 718.617188 486.261719 L 718.3125 486.566406 L 717.988281 486.839844 L 717.652344 487.074219 L 717.304688 487.269531 L 716.9375 487.433594 L 716.558594 487.558594 L 716.164062 487.648438 L 715.757812 487.703125 L 715.335938 487.722656 L 715.171875 487.71875 L 715.015625 487.710938 L 714.863281 487.691406 L 714.714844 487.671875 L 714.570312 487.640625 L 714.429688 487.605469 L 714.292969 487.5625 L 714.160156 487.515625 L 714.03125 487.460938 L 713.90625 487.398438 L 713.789062 487.332031 L 713.671875 487.253906 L 713.5625 487.175781 L 713.457031 487.085938 L 713.355469 486.996094 L 713.257812 486.894531 L 713.164062 486.792969 L 713.074219 486.679688 L 712.988281 486.566406 L 712.90625 486.445312 L 712.828125 486.316406 L 712.753906 486.179688 L 712.6875 486.039062 L 712.621094 485.894531 L 712.558594 485.742188 L 712.5 485.585938 L 712.445312 485.425781 L 712.394531 485.257812 L 712.347656 485.085938 L 712.304688 484.90625 L 712.269531 484.726562 L 712.234375 484.535156 L 712.207031 484.34375 L 712.179688 484.144531 L 712.160156 483.945312 L 712.128906 483.523438 L 712.121094 483.304688 L 712.113281 483.082031 L 712.113281 482.546875 L 712.117188 482.390625 L 712.125 482.230469 L 712.128906 482.070312 L 712.140625 481.910156 L 712.148438 481.746094 L 712.160156 481.582031 L 712.171875 481.414062 L 712.1875 481.246094 L 712.203125 481.074219 L 712.226562 480.902344 L 712.246094 480.726562 L 712.269531 480.550781 L 712.292969 480.371094 L 712.320312 480.191406 L 712.347656 480.007812 L 712.410156 479.640625 L 712.445312 479.449219 L 712.585938 478.714844 L 712.738281 478.023438 L 712.90625 477.367188 L 713.089844 476.753906 L 713.289062 476.179688 L 713.5 475.644531 L 713.722656 475.152344 L 713.964844 474.695312 L 714.21875 474.28125 L 714.484375 473.90625 L 714.769531 473.570312 L 715.066406 473.265625 L 715.375 473 L 715.699219 472.765625 L 716.03125 472.570312 L 716.378906 472.410156 L 716.742188 472.285156 L 717.117188 472.195312 L 717.503906 472.140625 Z M 717.828125 472.984375 L 717.6875 472.988281 L 717.550781 473 L 717.417969 473.023438 L 717.289062 473.054688 L 717.164062 473.089844 L 717.046875 473.140625 L 716.929688 473.195312 L 716.816406 473.257812 L 716.707031 473.332031 L 716.601562 473.414062 L 716.503906 473.503906 L 716.40625 473.601562 L 716.308594 473.707031 L 716.214844 473.820312 L 716.125 473.941406 L 716.035156 474.074219 L 715.949219 474.210938 L 715.863281 474.355469 L 715.78125 474.507812 L 715.699219 474.671875 L 715.625 474.839844 L 715.546875 475.015625 L 715.476562 475.199219 L 715.402344 475.390625 L 715.335938 475.589844 L 715.265625 475.796875 L 715.199219 476.011719 L 715.136719 476.234375 L 715.074219 476.464844 L 715.011719 476.699219 L 714.953125 476.945312 L 714.898438 477.195312 L 714.839844 477.453125 L 714.785156 477.71875 L 714.726562 477.988281 L 714.671875 478.269531 L 714.617188 478.554688 L 714.5625 478.847656 L 714.507812 479.144531 L 714.453125 479.449219 L 719.148438 479.449219 L 719.175781 479.257812 L 719.207031 479.070312 L 719.230469 478.882812 L 719.257812 478.695312 L 719.28125 478.511719 L 719.304688 478.332031 L 719.328125 478.15625 L 719.367188 477.804688 L 719.382812 477.636719 L 719.402344 477.464844 L 719.414062 477.296875 L 719.429688 477.132812 L 719.4375 476.96875 L 719.449219 476.808594 L 719.457031 476.652344 L 719.460938 476.496094 L 719.46875 476.191406 L 719.46875 475.90625 L 719.464844 475.765625 L 719.460938 475.632812 L 719.453125 475.5 L 719.445312 475.371094 L 719.421875 475.121094 L 719.410156 475 L 719.390625 474.882812 L 719.375 474.765625 L 719.335938 474.546875 L 719.3125 474.441406 L 719.289062 474.339844 L 719.261719 474.242188 L 719.230469 474.148438 L 719.199219 474.058594 L 719.167969 473.972656 L 719.132812 473.890625 L 719.054688 473.734375 L 719.011719 473.660156 L 718.96875 473.589844 L 718.921875 473.523438 L 718.820312 473.398438 L 718.765625 473.34375 L 718.710938 473.292969 L 718.652344 473.242188 L 718.527344 473.15625 L 718.460938 473.121094 L 718.390625 473.089844 L 718.316406 473.0625 L 718.242188 473.039062 L 718.164062 473.019531 L 718.085938 473.003906 L 718 472.992188 L 717.914062 472.984375 Z M 714.292969 480.394531 L 714.257812 480.601562 L 714.226562 480.808594 L 714.195312 481.011719 L 714.113281 481.609375 L 714.089844 481.800781 L 714.066406 481.996094 L 714.042969 482.183594 L 714.023438 482.371094 L 714.003906 482.554688 L 713.988281 482.738281 L 713.972656 482.914062 L 713.960938 483.089844 L 713.953125 483.261719 L 713.941406 483.429688 L 713.9375 483.597656 L 713.929688 483.761719 L 713.929688 483.921875 L 713.925781 484.082031 L 713.929688 484.207031 L 713.929688 484.328125 L 713.9375 484.570312 L 713.953125 484.796875 L 713.964844 484.910156 L 713.976562 485.019531 L 713.988281 485.125 L 714.003906 485.230469 L 714.019531 485.332031 L 714.035156 485.429688 L 714.054688 485.527344 L 714.101562 485.707031 L 714.15625 485.878906 L 714.183594 485.957031 L 714.214844 486.035156 L 714.285156 486.183594 L 714.363281 486.316406 L 714.402344 486.378906 L 714.449219 486.4375 L 714.496094 486.492188 L 714.542969 486.542969 L 714.59375 486.59375 L 714.644531 486.636719 L 714.699219 486.679688 L 714.757812 486.71875 L 714.816406 486.75 L 714.941406 486.804688 L 715.007812 486.824219 L 715.078125 486.84375 L 715.148438 486.855469 L 715.222656 486.867188 L 715.378906 486.875 L 715.515625 486.871094 L 715.652344 486.855469 L 715.78125 486.835938 L 715.910156 486.804688 L 716.039062 486.761719 L 716.160156 486.714844 L 716.28125 486.65625 L 716.398438 486.589844 L 716.511719 486.515625 L 716.625 486.433594 L 716.734375 486.339844 L 716.839844 486.242188 L 716.945312 486.132812 L 717.050781 486.019531 L 717.148438 485.894531 L 717.246094 485.765625 L 717.34375 485.628906 L 717.433594 485.480469 L 717.523438 485.328125 L 717.613281 485.164062 L 717.699219 484.996094 L 717.785156 484.816406 L 717.867188 484.628906 L 717.945312 484.4375 L 718.023438 484.238281 L 718.101562 484.027344 L 718.175781 483.8125 L 718.246094 483.589844 L 718.316406 483.363281 L 718.386719 483.125 L 718.449219 482.878906 L 718.515625 482.628906 L 718.578125 482.375 L 718.640625 482.109375 L 718.703125 481.839844 L 718.761719 481.566406 L 718.820312 481.28125 L 718.875 480.992188 L 718.933594 480.699219 L 718.988281 480.394531 Z M 714.292969 480.394531 "/>
<path fill-rule="nonzero" fill="rgb(0%, 0%, 0%)" fill-opacity="1" d="M 719.734375 470.609375 L 716.414062 463.8125 L 713.125 470.609375 L 711.386719 470.609375 L 715.339844 462.703125 L 717.519531 462.703125 L 721.496094 470.609375 Z M 719.734375 470.609375 "/>
<path fill-rule="nonzero" fill="rgb(0%, 0%, 0%)" fill-opacity="1" d="M 1.398438 54.402344 L 1.398438 39.265625 L 3.453125 39.265625 L 3.453125 52.726562 L 11.101562 52.726562 L 11.101562 54.402344 Z M 1.398438 54.402344 "/>
<path fill-rule="nonzero" fill="rgb(0%, 0%, 0%)" fill-opacity="1" d="M 15.199219 52.644531 L 15.207031 53.042969 L 15.214844 53.242188 L 15.222656 53.4375 L 15.238281 53.628906 L 15.253906 53.824219 L 15.273438 54.015625 L 15.320312 54.390625 L 15.347656 54.578125 L 15.378906 54.761719 L 15.414062 54.945312 L 15.457031 55.125 L 15.5 55.300781 L 15.546875 55.476562 L 15.597656 55.652344 L 15.652344 55.820312 L 15.714844 55.992188 L 15.777344 56.15625 L 15.84375 56.324219 L 15.992188 56.652344 L 16.074219 56.8125 L 16.160156 56.96875 L 16.25 57.125 L 16.445312 57.429688 L 16.550781 57.578125 L 16.660156 57.722656 L 16.773438 57.867188 L 16.890625 58.007812 L 17.015625 58.144531 L 17.144531 58.28125 L 17.277344 58.410156 L 17.417969 58.539062 L 17.566406 58.664062 L 17.71875 58.785156 L 17.875 58.902344 L 18.039062 59.019531 L 18.207031 59.128906 L 18.007812 60.257812 L 17.753906 60.105469 L 17.503906 59.953125 L 17.261719 59.796875 L 17.023438 59.636719 L 16.796875 59.480469 L 16.570312 59.316406 L 16.355469 59.152344 L 16.140625 58.984375 L 15.9375 58.816406 L 15.738281 58.644531 L 15.546875 58.472656 L 15.363281 58.292969 L 15.183594 58.113281 L 15.015625 57.929688 L 14.847656 57.738281 L 14.6875 57.546875 L 14.535156 57.351562 L 14.386719 57.152344 L 14.246094 56.945312 L 14.113281 56.738281 L 13.988281 56.527344 L 13.867188 56.3125 L 13.753906 56.089844 L 13.648438 55.863281 L 13.546875 55.636719 L 13.449219 55.398438 L 13.363281 55.160156 L 13.28125 54.917969 L 13.203125 54.667969 L 13.132812 54.417969 L 13.070312 54.15625 L 13.011719 53.894531 L 12.960938 53.621094 L 12.917969 53.34375 L 12.882812 53.058594 L 12.851562 52.769531 L 12.828125 52.472656 L 12.8125 52.167969 L 12.800781 51.859375 L 12.796875 51.542969 L 12.796875 51.367188 L 12.808594 50.828125 L 12.824219 50.46875 L 12.847656 50.109375 L 12.894531 49.558594 L 12.914062 49.367188 L 12.960938 48.984375 L 12.984375 48.785156 L 13.011719 48.589844 L 13.074219 48.183594 L 13.144531 47.769531 L 13.238281 47.269531 L 13.335938 46.78125 L 13.441406 46.304688 L 13.550781 45.84375 L 13.671875 45.394531 L 13.792969 44.957031 L 13.925781 44.53125 L 14.0625 44.121094 L 14.203125 43.722656 L 14.355469 43.339844 L 14.511719 42.960938 L 14.675781 42.59375 L 14.847656 42.234375 L 15.023438 41.882812 L 15.210938 41.542969 L 15.402344 41.210938 L 15.605469 40.886719 L 15.8125 40.570312 L 16.027344 40.265625 L 16.25 39.96875 L 16.480469 39.679688 L 16.71875 39.398438 L 16.964844 39.121094 L 17.222656 38.851562 L 17.484375 38.589844 L 17.753906 38.335938 L 18.03125 38.089844 L 18.316406 37.851562 L 18.605469 37.617188 L 18.90625 37.390625 L 19.21875 37.167969 L 19.535156 36.949219 L 19.863281 36.734375 L 20.199219 36.523438 L 20.546875 36.316406 L 20.898438 36.109375 L 21.261719 35.910156 L 21.632812 35.710938 L 22.011719 35.515625 L 22.398438 35.320312 L 22.195312 36.449219 L 21.867188 36.628906 L 21.550781 36.8125 L 21.246094 37.007812 L 20.953125 37.207031 L 20.667969 37.417969 L 20.398438 37.632812 L 20.136719 37.855469 L 19.886719 38.085938 L 19.644531 38.324219 L 19.417969 38.570312 L 19.199219 38.820312 L 18.992188 39.074219 L 18.789062 39.335938 L 18.597656 39.601562 L 18.410156 39.871094 L 18.230469 40.144531 L 18.058594 40.425781 L 17.894531 40.710938 L 17.738281 41 L 17.589844 41.296875 L 17.453125 41.59375 L 17.316406 41.894531 L 17.1875 42.199219 L 17.066406 42.507812 L 16.949219 42.816406 L 16.839844 43.132812 L 16.734375 43.449219 L 16.632812 43.773438 L 16.539062 44.097656 L 16.449219 44.425781 L 16.367188 44.757812 L 16.210938 45.421875 L 16.0625 46.085938 L 15.992188 46.421875 L 15.859375 47.09375 L 15.796875 47.429688 L 15.738281 47.769531 L 15.691406 48.023438 L 15.605469 48.523438 L 15.527344 49.023438 L 15.449219 49.515625 L 15.414062 49.761719 L 15.382812 50.007812 L 15.347656 50.253906 L 15.320312 50.496094 L 15.296875 50.742188 L 15.273438 50.980469 L 15.253906 51.222656 L 15.222656 51.699219 L 15.207031 52.175781 Z M 15.199219 52.644531 "/>
<path fill-rule="nonzero" fill="rgb(0%, 0%, 0%)" fill-opacity="1" d="M 27.851562 39.019531 L 28.019531 39.023438 L 28.179688 39.035156 L 28.335938 39.050781 L 28.492188 39.074219 L 28.640625 39.105469 L 28.789062 39.144531 L 28.929688 39.1875 L 29.070312 39.238281 L 29.203125 39.296875 L 29.335938 39.363281 L 29.460938 39.433594 L 29.582031 39.507812 L 29.703125 39.589844 L 29.816406 39.679688 L 29.925781 39.773438 L 30.03125 39.875 L 30.132812 39.984375 L 30.226562 40.097656 L 30.320312 40.214844 L 30.410156 40.339844 L 30.492188 40.472656 L 30.570312 40.609375 L 30.648438 40.753906 L 30.71875 40.90625 L 30.785156 41.0625 L 30.847656 41.222656 L 30.90625 41.390625 L 30.957031 41.566406 L 31.007812 41.746094 L 31.054688 41.929688 L 31.097656 42.121094 L 31.132812 42.316406 L 31.167969 42.515625 L 31.199219 42.722656 L 31.222656 42.933594 L 31.242188 43.148438 L 31.257812 43.371094 L 31.269531 43.597656 L 31.277344 43.832031 L 31.277344 44.351562 L 31.265625 44.636719 L 31.25 44.933594 L 31.230469 45.234375 L 31.203125 45.546875 L 31.167969 45.863281 L 31.125 46.1875 L 31.078125 46.519531 L 31.027344 46.859375 L 30.96875 47.207031 L 30.828125 47.945312 L 30.671875 48.644531 L 30.5 49.304688 L 30.3125 49.921875 L 30.109375 50.503906 L 29.890625 51.042969 L 29.65625 51.546875 L 29.40625 52.007812 L 29.140625 52.429688 L 28.863281 52.8125 L 28.570312 53.15625 L 28.261719 53.460938 L 27.941406 53.734375 L 27.605469 53.96875 L 27.253906 54.167969 L 26.886719 54.328125 L 26.507812 54.457031 L 26.117188 54.546875 L 25.707031 54.601562 L 25.285156 54.617188 L 25.125 54.613281 L 24.964844 54.605469 L 24.8125 54.589844 L 24.664062 54.566406 L 24.519531 54.539062 L 24.378906 54.5 L 24.242188 54.460938 L 24.109375 54.410156 L 23.980469 54.355469 L 23.855469 54.296875 L 23.738281 54.226562 L 23.625 54.152344 L 23.511719 54.070312 L 23.40625 53.984375 L 23.304688 53.890625 L 23.207031 53.792969 L 23.113281 53.6875 L 23.023438 53.578125 L 22.9375 53.460938 L 22.855469 53.339844 L 22.78125 53.210938 L 22.707031 53.074219 L 22.636719 52.933594 L 22.570312 52.789062 L 22.507812 52.636719 L 22.449219 52.480469 L 22.394531 52.320312 L 22.34375 52.152344 L 22.296875 51.980469 L 22.253906 51.804688 L 22.21875 51.621094 L 22.1875 51.433594 L 22.15625 51.238281 L 22.132812 51.042969 L 22.109375 50.839844 L 22.09375 50.632812 L 22.078125 50.417969 L 22.070312 50.203125 L 22.0625 49.980469 L 22.0625 49.597656 L 22.074219 49.128906 L 22.082031 48.96875 L 22.097656 48.640625 L 22.109375 48.476562 L 22.125 48.308594 L 22.136719 48.140625 L 22.175781 47.796875 L 22.195312 47.621094 L 22.21875 47.445312 L 22.300781 46.90625 L 22.328125 46.71875 L 22.363281 46.535156 L 22.394531 46.347656 L 22.535156 45.613281 L 22.691406 44.917969 L 22.859375 44.265625 L 23.042969 43.648438 L 23.238281 43.074219 L 23.449219 42.539062 L 23.675781 42.046875 L 23.914062 41.59375 L 24.167969 41.179688 L 24.4375 40.804688 L 24.71875 40.464844 L 25.015625 40.160156 L 25.324219 39.894531 L 25.648438 39.660156 L 25.984375 39.464844 L 26.332031 39.304688 L 26.691406 39.179688 L 27.066406 39.089844 L 27.453125 39.039062 Z M 27.777344 39.878906 L 27.636719 39.882812 L 27.5 39.898438 L 27.367188 39.917969 L 27.242188 39.949219 L 27.117188 39.988281 L 26.996094 40.035156 L 26.878906 40.089844 L 26.765625 40.15625 L 26.65625 40.226562 L 26.550781 40.308594 L 26.453125 40.398438 L 26.355469 40.496094 L 26.257812 40.601562 L 26.164062 40.714844 L 26.074219 40.839844 L 25.984375 40.96875 L 25.898438 41.105469 L 25.8125 41.25 L 25.730469 41.40625 L 25.648438 41.566406 L 25.574219 41.734375 L 25.5 41.910156 L 25.425781 42.097656 L 25.355469 42.289062 L 25.285156 42.488281 L 25.21875 42.695312 L 25.152344 42.90625 L 25.085938 43.128906 L 25.023438 43.359375 L 24.960938 43.597656 L 24.90625 43.839844 L 24.847656 44.089844 L 24.789062 44.347656 L 24.734375 44.613281 L 24.679688 44.886719 L 24.621094 45.164062 L 24.566406 45.449219 L 24.511719 45.742188 L 24.457031 46.039062 L 24.402344 46.347656 L 29.097656 46.347656 L 29.128906 46.152344 L 29.183594 45.777344 L 29.207031 45.589844 L 29.234375 45.410156 L 29.253906 45.230469 L 29.277344 45.050781 L 29.296875 44.875 L 29.335938 44.53125 L 29.351562 44.359375 L 29.367188 44.191406 L 29.390625 43.863281 L 29.398438 43.703125 L 29.414062 43.390625 L 29.417969 43.238281 L 29.417969 43.089844 L 29.421875 42.941406 L 29.417969 42.800781 L 29.417969 42.664062 L 29.410156 42.527344 L 29.40625 42.394531 L 29.398438 42.265625 L 29.375 42.015625 L 29.359375 41.894531 L 29.34375 41.777344 L 29.304688 41.550781 L 29.285156 41.441406 L 29.261719 41.335938 L 29.238281 41.238281 L 29.210938 41.140625 L 29.183594 41.046875 L 29.152344 40.953125 L 29.117188 40.867188 L 29.082031 40.785156 L 29.003906 40.628906 L 28.960938 40.554688 L 28.917969 40.484375 L 28.871094 40.417969 L 28.820312 40.355469 L 28.769531 40.296875 L 28.714844 40.238281 L 28.660156 40.1875 L 28.601562 40.140625 L 28.539062 40.09375 L 28.476562 40.054688 L 28.410156 40.015625 L 28.339844 39.984375 L 28.269531 39.957031 L 28.195312 39.933594 L 28.117188 39.914062 L 28.035156 39.898438 L 27.953125 39.886719 L 27.867188 39.882812 Z M 24.242188 47.292969 L 24.210938 47.5 L 24.175781 47.703125 L 24.148438 47.90625 L 24.117188 48.109375 L 24.089844 48.308594 L 24.0625 48.503906 L 24.039062 48.699219 L 24.015625 48.890625 L 23.996094 49.082031 L 23.972656 49.269531 L 23.957031 49.453125 L 23.941406 49.632812 L 23.925781 49.808594 L 23.914062 49.984375 L 23.902344 50.15625 L 23.894531 50.328125 L 23.886719 50.492188 L 23.882812 50.65625 L 23.878906 50.816406 L 23.878906 51.226562 L 23.882812 51.347656 L 23.898438 51.582031 L 23.90625 51.695312 L 23.914062 51.804688 L 23.925781 51.914062 L 23.9375 52.019531 L 23.953125 52.125 L 23.96875 52.226562 L 24.007812 52.421875 L 24.027344 52.515625 L 24.050781 52.605469 L 24.078125 52.691406 L 24.105469 52.773438 L 24.136719 52.855469 L 24.167969 52.933594 L 24.199219 53.007812 L 24.234375 53.078125 L 24.3125 53.210938 L 24.355469 53.273438 L 24.398438 53.332031 L 24.445312 53.386719 L 24.492188 53.4375 L 24.542969 53.488281 L 24.597656 53.535156 L 24.707031 53.613281 L 24.769531 53.644531 L 24.828125 53.675781 L 24.960938 53.722656 L 25.027344 53.738281 L 25.101562 53.75 L 25.171875 53.761719 L 25.328125 53.769531 L 25.464844 53.765625 L 25.601562 53.75 L 25.734375 53.730469 L 25.863281 53.699219 L 25.988281 53.660156 L 26.113281 53.609375 L 26.230469 53.554688 L 26.347656 53.488281 L 26.464844 53.414062 L 26.574219 53.328125 L 26.683594 53.238281 L 26.792969 53.136719 L 26.898438 53.03125 L 27 52.914062 L 27.101562 52.792969 L 27.199219 52.660156 L 27.292969 52.523438 L 27.386719 52.375 L 27.476562 52.222656 L 27.5625 52.0625 L 27.648438 51.890625 L 27.734375 51.710938 L 27.816406 51.527344 L 27.898438 51.332031 L 27.976562 51.132812 L 28.050781 50.925781 L 28.125 50.710938 L 28.199219 50.488281 L 28.269531 50.257812 L 28.335938 50.019531 L 28.402344 49.777344 L 28.464844 49.527344 L 28.53125 49.269531 L 28.59375 49.007812 L 28.652344 48.738281 L 28.710938 48.460938 L 28.769531 48.179688 L 28.828125 47.890625 L 28.882812 47.59375 L 28.9375 47.292969 Z M 24.242188 47.292969 "/>
<path fill-rule="nonzero" fill="rgb(0%, 0%, 0%)" fill-opacity="1" d="M 35.378906 60.339844 L 35.378906 35.320312 L 36.75 35.320312 L 36.75 60.339844 Z M 35.378906 60.339844 "/>
<path fill-rule="nonzero" fill="rgb(0%, 0%, 0%)" fill-opacity="1" d="M 47.960938 54.402344 L 44.832031 49.632812 L 41.6875 54.402344 L 39.601562 54.402344 L 43.738281 48.429688 L 39.796875 42.78125 L 41.933594 42.78125 L 44.832031 47.300781 L 47.710938 42.78125 L 49.871094 42.78125 L 45.929688 48.410156 L 50.117188 54.402344 Z M 47.960938 54.402344 "/>
<path fill-rule="nonzero" fill="rgb(0%, 0%, 0%)" fill-opacity="1" d="M 49.050781 60.257812 L 49.253906 59.128906 L 49.582031 58.949219 L 49.898438 58.765625 L 50.203125 58.570312 L 50.496094 58.371094 L 50.777344 58.164062 L 51.046875 57.945312 L 51.308594 57.722656 L 51.554688 57.492188 L 51.792969 57.253906 L 52.019531 57.007812 L 52.234375 56.753906 L 52.445312 56.5 L 52.644531 56.238281 L 52.839844 55.972656 L 53.023438 55.703125 L 53.199219 55.425781 L 53.371094 55.148438 L 53.53125 54.863281 L 53.6875 54.574219 L 53.832031 54.28125 L 53.972656 53.980469 L 54.109375 53.679688 L 54.238281 53.375 L 54.363281 53.0625 L 54.480469 52.75 L 54.589844 52.433594 L 54.695312 52.117188 L 54.792969 51.792969 L 54.886719 51.46875 L 54.972656 51.140625 L 55.058594 50.804688 L 55.140625 50.472656 L 55.375 49.464844 L 55.445312 49.128906 L 55.515625 48.789062 L 55.648438 48.109375 L 55.710938 47.769531 L 55.757812 47.519531 L 55.800781 47.273438 L 55.84375 47.023438 L 55.921875 46.53125 L 55.957031 46.285156 L 55.992188 46.042969 L 56.027344 45.796875 L 56.089844 45.3125 L 56.117188 45.070312 L 56.164062 44.585938 L 56.183594 44.34375 L 56.199219 44.105469 L 56.210938 43.871094 L 56.222656 43.632812 L 56.230469 43.398438 L 56.234375 43.167969 L 56.234375 42.734375 L 56.230469 42.535156 L 56.222656 42.339844 L 56.199219 41.949219 L 56.183594 41.757812 L 56.164062 41.566406 L 56.140625 41.375 L 56.117188 41.1875 L 56.089844 41.003906 L 56.054688 40.816406 L 56.019531 40.636719 L 55.980469 40.457031 L 55.9375 40.277344 L 55.890625 40.101562 L 55.839844 39.929688 L 55.78125 39.757812 L 55.722656 39.589844 L 55.660156 39.421875 L 55.589844 39.257812 L 55.523438 39.089844 L 55.367188 38.769531 L 55.28125 38.609375 L 55.191406 38.453125 L 55.097656 38.300781 L 54.996094 38.148438 L 54.890625 38 L 54.78125 37.855469 L 54.664062 37.710938 L 54.546875 37.570312 L 54.421875 37.433594 L 54.292969 37.300781 L 54.15625 37.167969 L 54.015625 37.039062 L 53.871094 36.917969 L 53.71875 36.792969 L 53.558594 36.675781 L 53.398438 36.5625 L 53.226562 36.449219 L 53.429688 35.320312 L 53.683594 35.476562 L 53.933594 35.632812 L 54.175781 35.789062 L 54.410156 35.949219 L 54.640625 36.109375 L 54.863281 36.273438 L 55.082031 36.441406 L 55.292969 36.605469 L 55.5 36.777344 L 55.699219 36.945312 L 55.890625 37.117188 L 56.078125 37.292969 L 56.257812 37.472656 L 56.429688 37.65625 L 56.597656 37.84375 L 56.757812 38.035156 L 56.914062 38.230469 L 57.0625 38.429688 L 57.203125 38.632812 L 57.335938 38.839844 L 57.464844 39.050781 L 57.585938 39.261719 L 57.703125 39.480469 L 57.8125 39.707031 L 57.914062 39.933594 L 58.011719 40.167969 L 58.101562 40.40625 L 58.183594 40.648438 L 58.261719 40.898438 L 58.332031 41.148438 L 58.394531 41.40625 L 58.453125 41.671875 L 58.5 41.945312 L 58.546875 42.222656 L 58.582031 42.507812 L 58.613281 42.800781 L 58.636719 43.101562 L 58.652344 43.40625 L 58.664062 43.71875 L 58.667969 44.035156 L 58.664062 44.367188 L 58.652344 44.710938 L 58.632812 45.0625 L 58.609375 45.421875 L 58.574219 45.789062 L 58.535156 46.167969 L 58.488281 46.554688 L 58.433594 46.949219 L 58.371094 47.355469 L 58.304688 47.769531 L 58.210938 48.269531 L 58.113281 48.757812 L 58.007812 49.234375 L 57.894531 49.699219 L 57.777344 50.148438 L 57.652344 50.585938 L 57.519531 51.011719 L 57.378906 51.425781 L 57.234375 51.828125 L 57.082031 52.214844 L 56.925781 52.589844 L 56.761719 52.960938 L 56.589844 53.316406 L 56.410156 53.667969 L 56.222656 54.011719 L 56.027344 54.34375 L 55.824219 54.667969 L 55.617188 54.980469 L 55.398438 55.289062 L 55.175781 55.585938 L 54.945312 55.875 L 54.707031 56.160156 L 54.460938 56.4375 L 54.207031 56.707031 L 53.945312 56.972656 L 53.675781 57.226562 L 53.398438 57.476562 L 53.113281 57.714844 L 52.820312 57.949219 L 52.515625 58.175781 L 52.207031 58.398438 L 51.890625 58.621094 L 51.566406 58.835938 L 51.234375 59.050781 L 50.890625 59.261719 L 50.539062 59.464844 L 50.179688 59.667969 L 49.8125 59.867188 L 49.4375 60.066406 Z M 49.050781 60.257812 "/>
</svg>
