<?xml version="1.0" encoding="UTF-8"?>
<svg xmlns="http://www.w3.org/2000/svg" xmlns:xlink="http://www.w3.org/1999/xlink" width="756" height="504" viewBox="0 0 756 504">
<defs>
<g>
<g id="glyph-0-0">
<path d="M 0.390625 0 L 0.390625 -8.609375 L 7.21875 -8.609375 L 7.21875 0 Z M 6.140625 -1.078125 L 6.140625 -7.53125 L 1.46875 -7.53125 L 1.46875 -1.078125 Z M 6.140625 -1.078125 "/>
</g>
<g id="glyph-0-1">
<path d="M 7.171875 -8.609375 L 7.171875 -7.578125 L 4.28125 -7.578125 L 4.28125 0 L 3.09375 0 L 3.09375 -7.578125 L 0.1875 -7.578125 L 0.1875 -8.609375 Z M 7.171875 -8.609375 "/>
</g>
<g id="glyph-0-2">
<path d="M 0.78125 -6.25 L 1.84375 -6.25 L 1.84375 0 L 0.78125 0 Z M 0.78125 -8.609375 L 1.84375 -8.609375 L 1.84375 -7.40625 L 0.78125 -7.40625 Z M 0.78125 -8.609375 "/>
</g>
<g id="glyph-0-3">
<path d="M 0.78125 -6.28125 L 1.8125 -6.28125 L 1.8125 -5.390625 C 2.0625 -5.691406 2.289062 -5.914062 2.5 -6.0625 C 2.84375 -6.300781 3.238281 -6.421875 3.6875 -6.421875 C 4.1875 -6.421875 4.585938 -6.296875 4.890625 -6.046875 C 5.054688 -5.910156 5.210938 -5.703125 5.359375 -5.421875 C 5.585938 -5.765625 5.859375 -6.015625 6.171875 -6.171875 C 6.492188 -6.335938 6.851562 -6.421875 7.25 -6.421875 C 8.09375 -6.421875 8.664062 -6.113281 8.96875 -5.5 C 9.132812 -5.175781 9.21875 -4.734375 9.21875 -4.171875 L 9.21875 0 L 8.125 0 L 8.125 -4.359375 C 8.125 -4.773438 8.019531 -5.0625 7.8125 -5.21875 C 7.601562 -5.375 7.347656 -5.453125 7.046875 -5.453125 C 6.628906 -5.453125 6.269531 -5.3125 5.96875 -5.03125 C 5.675781 -4.757812 5.53125 -4.300781 5.53125 -3.65625 L 5.53125 0 L 4.453125 0 L 4.453125 -4.09375 C 4.453125 -4.519531 4.398438 -4.832031 4.296875 -5.03125 C 4.140625 -5.320312 3.84375 -5.46875 3.40625 -5.46875 C 3.007812 -5.46875 2.644531 -5.3125 2.3125 -5 C 1.988281 -4.695312 1.828125 -4.140625 1.828125 -3.328125 L 1.828125 0 L 0.78125 0 Z M 0.78125 -6.28125 "/>
</g>
<g id="glyph-0-4">
<path d="M 3.390625 -6.421875 C 3.835938 -6.421875 4.269531 -6.316406 4.6875 -6.109375 C 5.101562 -5.898438 5.421875 -5.628906 5.640625 -5.296875 C 5.847656 -4.972656 5.988281 -4.601562 6.0625 -4.1875 C 6.125 -3.894531 6.15625 -3.429688 6.15625 -2.796875 L 1.546875 -2.796875 C 1.566406 -2.160156 1.71875 -1.648438 2 -1.265625 C 2.28125 -0.878906 2.71875 -0.6875 3.3125 -0.6875 C 3.863281 -0.6875 4.300781 -0.867188 4.625 -1.234375 C 4.8125 -1.441406 4.945312 -1.6875 5.03125 -1.96875 L 6.0625 -1.96875 C 6.039062 -1.738281 5.953125 -1.484375 5.796875 -1.203125 C 5.640625 -0.921875 5.46875 -0.6875 5.28125 -0.5 C 4.957031 -0.1875 4.554688 0.0195312 4.078125 0.125 C 3.828125 0.1875 3.539062 0.21875 3.21875 0.21875 C 2.4375 0.21875 1.773438 -0.0625 1.234375 -0.625 C 0.691406 -1.195312 0.421875 -1.992188 0.421875 -3.015625 C 0.421875 -4.023438 0.691406 -4.84375 1.234375 -5.46875 C 1.785156 -6.101562 2.503906 -6.421875 3.390625 -6.421875 Z M 5.0625 -3.640625 C 5.019531 -4.097656 4.921875 -4.460938 4.765625 -4.734375 C 4.484375 -5.242188 4.003906 -5.5 3.328125 -5.5 C 2.835938 -5.5 2.425781 -5.320312 2.09375 -4.96875 C 1.769531 -4.625 1.597656 -4.179688 1.578125 -3.640625 Z M 3.28125 -6.421875 Z M 3.28125 -6.421875 "/>
</g>
<g id="glyph-0-5">
<path d="M 3.25 -8.390625 C 4.332031 -8.390625 5.117188 -7.941406 5.609375 -7.046875 C 5.984375 -6.359375 6.171875 -5.410156 6.171875 -4.203125 C 6.171875 -3.066406 6 -2.125 5.65625 -1.375 C 5.164062 -0.300781 4.359375 0.234375 3.234375 0.234375 C 2.234375 0.234375 1.484375 -0.203125 0.984375 -1.078125 C 0.578125 -1.816406 0.375 -2.800781 0.375 -4.03125 C 0.375 -4.976562 0.5 -5.796875 0.75 -6.484375 C 1.207031 -7.753906 2.039062 -8.390625 3.25 -8.390625 Z M 3.234375 -0.734375 C 3.785156 -0.734375 4.222656 -0.972656 4.546875 -1.453125 C 4.867188 -1.941406 5.03125 -2.847656 5.03125 -4.171875 C 5.03125 -5.117188 4.910156 -5.898438 4.671875 -6.515625 C 4.441406 -7.128906 3.988281 -7.4375 3.3125 -7.4375 C 2.6875 -7.4375 2.226562 -7.144531 1.9375 -6.5625 C 1.65625 -5.976562 1.515625 -5.117188 1.515625 -3.984375 C 1.515625 -3.128906 1.609375 -2.441406 1.796875 -1.921875 C 2.078125 -1.128906 2.554688 -0.734375 3.234375 -0.734375 Z M 3.234375 -0.734375 "/>
</g>
<g id="glyph-0-6">
<path d="M 1.484375 -2.140625 C 1.554688 -1.535156 1.835938 -1.117188 2.328125 -0.890625 C 2.578125 -0.773438 2.863281 -0.71875 3.1875 -0.71875 C 3.8125 -0.71875 4.273438 -0.914062 4.578125 -1.3125 C 4.878906 -1.707031 5.03125 -2.148438 5.03125 -2.640625 C 5.03125 -3.222656 4.847656 -3.675781 4.484375 -4 C 4.128906 -4.320312 3.703125 -4.484375 3.203125 -4.484375 C 2.835938 -4.484375 2.523438 -4.410156 2.265625 -4.265625 C 2.003906 -4.128906 1.785156 -3.9375 1.609375 -3.6875 L 0.6875 -3.734375 L 1.328125 -8.25 L 5.6875 -8.25 L 5.6875 -7.234375 L 2.125 -7.234375 L 1.765625 -4.90625 C 1.960938 -5.050781 2.148438 -5.160156 2.328125 -5.234375 C 2.640625 -5.359375 3 -5.421875 3.40625 -5.421875 C 4.175781 -5.421875 4.828125 -5.171875 5.359375 -4.671875 C 5.898438 -4.179688 6.171875 -3.554688 6.171875 -2.796875 C 6.171875 -2.003906 5.921875 -1.300781 5.421875 -0.6875 C 4.929688 -0.0820312 4.148438 0.21875 3.078125 0.21875 C 2.398438 0.21875 1.796875 0.0234375 1.265625 -0.359375 C 0.742188 -0.742188 0.453125 -1.335938 0.390625 -2.140625 Z M 1.484375 -2.140625 "/>
</g>
<g id="glyph-0-7">
<path d="M 1.15625 -5.9375 L 1.15625 -6.75 C 1.914062 -6.820312 2.441406 -6.945312 2.734375 -7.125 C 3.035156 -7.300781 3.265625 -7.710938 3.421875 -8.359375 L 4.25 -8.359375 L 4.25 0 L 3.125 0 L 3.125 -5.9375 Z M 1.15625 -5.9375 "/>
</g>
<g id="glyph-0-8">
<path d="M 0.375 0 C 0.414062 -0.71875 0.566406 -1.34375 0.828125 -1.875 C 1.085938 -2.414062 1.59375 -2.90625 2.34375 -3.34375 L 3.46875 -4 C 3.96875 -4.289062 4.320312 -4.539062 4.53125 -4.75 C 4.851562 -5.070312 5.015625 -5.441406 5.015625 -5.859375 C 5.015625 -6.347656 4.863281 -6.734375 4.5625 -7.015625 C 4.269531 -7.304688 3.882812 -7.453125 3.40625 -7.453125 C 2.675781 -7.453125 2.175781 -7.179688 1.90625 -6.640625 C 1.75 -6.335938 1.664062 -5.929688 1.65625 -5.421875 L 0.578125 -5.421875 C 0.585938 -6.148438 0.722656 -6.742188 0.984375 -7.203125 C 1.441406 -8.015625 2.25 -8.421875 3.40625 -8.421875 C 4.363281 -8.421875 5.0625 -8.160156 5.5 -7.640625 C 5.945312 -7.117188 6.171875 -6.539062 6.171875 -5.90625 C 6.171875 -5.238281 5.9375 -4.664062 5.46875 -4.1875 C 5.195312 -3.90625 4.707031 -3.566406 4 -3.171875 L 3.1875 -2.734375 C 2.8125 -2.523438 2.515625 -2.320312 2.296875 -2.125 C 1.898438 -1.789062 1.648438 -1.414062 1.546875 -1 L 6.140625 -1 L 6.140625 0 Z M 0.375 0 "/>
</g>
<g id="glyph-1-0">
<path d="M 0 -0.390625 L -8.609375 -0.390625 L -8.609375 -7.21875 L 0 -7.21875 Z M -1.078125 -6.140625 L -7.53125 -6.140625 L -7.53125 -1.46875 L -1.078125 -1.46875 Z M -1.078125 -6.140625 "/>
</g>
<g id="glyph-1-1">
<path d="M -8.640625 -0.78125 L -8.640625 -1.828125 L -5.421875 -1.828125 C -5.742188 -2.078125 -5.96875 -2.300781 -6.09375 -2.5 C -6.3125 -2.84375 -6.421875 -3.269531 -6.421875 -3.78125 C -6.421875 -4.6875 -6.101562 -5.300781 -5.46875 -5.625 C -5.125 -5.800781 -4.644531 -5.890625 -4.03125 -5.890625 L 0 -5.890625 L 0 -4.8125 L -3.953125 -4.8125 C -4.410156 -4.8125 -4.75 -4.75 -4.96875 -4.625 C -5.3125 -4.4375 -5.484375 -4.078125 -5.484375 -3.546875 C -5.484375 -3.109375 -5.332031 -2.710938 -5.03125 -2.359375 C -4.726562 -2.003906 -4.160156 -1.828125 -3.328125 -1.828125 L 0 -1.828125 L 0 -0.78125 Z M -8.640625 -0.78125 "/>
</g>
<g id="glyph-1-2">
<path d="M -6.421875 -3.390625 C -6.421875 -3.835938 -6.316406 -4.269531 -6.109375 -4.6875 C -5.898438 -5.101562 -5.628906 -5.421875 -5.296875 -5.640625 C -4.972656 -5.847656 -4.601562 -5.988281 -4.1875 -6.0625 C -3.894531 -6.125 -3.429688 -6.15625 -2.796875 -6.15625 L -2.796875 -1.546875 C -2.160156 -1.566406 -1.648438 -1.71875 -1.265625 -2 C -0.878906 -2.28125 -0.6875 -2.71875 -0.6875 -3.3125 C -0.6875 -3.863281 -0.867188 -4.300781 -1.234375 -4.625 C -1.441406 -4.8125 -1.6875 -4.945312 -1.96875 -5.03125 L -1.96875 -6.0625 C -1.738281 -6.039062 -1.484375 -5.953125 -1.203125 -5.796875 C -0.921875 -5.640625 -0.6875 -5.46875 -0.5 -5.28125 C -0.1875 -4.957031 0.0195312 -4.554688 0.125 -4.078125 C 0.1875 -3.828125 0.21875 -3.539062 0.21875 -3.21875 C 0.21875 -2.4375 -0.0625 -1.773438 -0.625 -1.234375 C -1.195312 -0.691406 -1.992188 -0.421875 -3.015625 -0.421875 C -4.023438 -0.421875 -4.84375 -0.691406 -5.46875 -1.234375 C -6.101562 -1.785156 -6.421875 -2.503906 -6.421875 -3.390625 Z M -3.640625 -5.0625 C -4.097656 -5.019531 -4.460938 -4.921875 -4.734375 -4.765625 C -5.242188 -4.484375 -5.5 -4.003906 -5.5 -3.328125 C -5.5 -2.835938 -5.320312 -2.425781 -4.96875 -2.09375 C -4.625 -1.769531 -4.179688 -1.597656 -3.640625 -1.578125 Z M -6.421875 -3.28125 Z M -6.421875 -3.28125 "/>
</g>
<g id="glyph-1-3">
<path d="M -1.96875 -1.40625 C -1.613281 -1.4375 -1.34375 -1.523438 -1.15625 -1.671875 C -0.820312 -1.929688 -0.65625 -2.390625 -0.65625 -3.046875 C -0.65625 -3.441406 -0.738281 -3.785156 -0.90625 -4.078125 C -1.070312 -4.378906 -1.332031 -4.53125 -1.6875 -4.53125 C -1.957031 -4.53125 -2.164062 -4.410156 -2.3125 -4.171875 C -2.394531 -4.015625 -2.492188 -3.710938 -2.609375 -3.265625 L -2.8125 -2.421875 C -2.945312 -1.890625 -3.097656 -1.5 -3.265625 -1.25 C -3.546875 -0.789062 -3.941406 -0.5625 -4.453125 -0.5625 C -5.046875 -0.5625 -5.523438 -0.773438 -5.890625 -1.203125 C -6.253906 -1.628906 -6.4375 -2.207031 -6.4375 -2.9375 C -6.4375 -3.875 -6.160156 -4.550781 -5.609375 -4.96875 C -5.253906 -5.238281 -4.875 -5.367188 -4.46875 -5.359375 L -4.46875 -4.359375 C -4.707031 -4.335938 -4.925781 -4.253906 -5.125 -4.109375 C -5.394531 -3.867188 -5.53125 -3.445312 -5.53125 -2.84375 C -5.53125 -2.445312 -5.453125 -2.144531 -5.296875 -1.9375 C -5.148438 -1.738281 -4.953125 -1.640625 -4.703125 -1.640625 C -4.429688 -1.640625 -4.210938 -1.773438 -4.046875 -2.046875 C -3.953125 -2.203125 -3.867188 -2.429688 -3.796875 -2.734375 L -3.625 -3.421875 C -3.4375 -4.179688 -3.257812 -4.691406 -3.09375 -4.953125 C -2.820312 -5.359375 -2.394531 -5.5625 -1.8125 -5.5625 C -1.257812 -5.5625 -0.78125 -5.347656 -0.375 -4.921875 C 0.0273438 -4.503906 0.234375 -3.863281 0.234375 -3 C 0.234375 -2.0625 0.0234375 -1.394531 -0.390625 -1 C -0.816406 -0.613281 -1.34375 -0.410156 -1.96875 -0.390625 Z M -6.421875 -2.953125 Z M -6.421875 -2.953125 "/>
</g>
<g id="glyph-1-4">
<path d="M -8.03125 -0.984375 L -8.03125 -2.046875 L -6.28125 -2.046875 L -6.28125 -3.046875 L -5.421875 -3.046875 L -5.421875 -2.046875 L -1.3125 -2.046875 C -1.09375 -2.046875 -0.945312 -2.125 -0.875 -2.28125 C -0.832031 -2.351562 -0.8125 -2.488281 -0.8125 -2.6875 C -0.8125 -2.738281 -0.8125 -2.789062 -0.8125 -2.84375 C -0.820312 -2.90625 -0.828125 -2.972656 -0.828125 -3.046875 L 0 -3.046875 C 0.03125 -2.929688 0.0507812 -2.804688 0.0625 -2.671875 C 0.0820312 -2.546875 0.09375 -2.40625 0.09375 -2.25 C 0.09375 -1.757812 -0.03125 -1.425781 -0.28125 -1.25 C -0.53125 -1.070312 -0.859375 -0.984375 -1.265625 -0.984375 L -5.421875 -0.984375 L -5.421875 -0.140625 L -6.28125 -0.140625 L -6.28125 -0.984375 Z M -8.03125 -0.984375 "/>
</g>
<g id="glyph-1-5">
<path d="M -8.390625 -3.25 C -8.390625 -4.332031 -7.941406 -5.117188 -7.046875 -5.609375 C -6.359375 -5.984375 -5.410156 -6.171875 -4.203125 -6.171875 C -3.066406 -6.171875 -2.125 -6 -1.375 -5.65625 C -0.300781 -5.164062 0.234375 -4.359375 0.234375 -3.234375 C 0.234375 -2.234375 -0.203125 -1.484375 -1.078125 -0.984375 C -1.816406 -0.578125 -2.800781 -0.375 -4.03125 -0.375 C -4.976562 -0.375 -5.796875 -0.5 -6.484375 -0.75 C -7.753906 -1.207031 -8.390625 -2.039062 -8.390625 -3.25 Z M -0.734375 -3.234375 C -0.734375 -3.785156 -0.972656 -4.222656 -1.453125 -4.546875 C -1.941406 -4.867188 -2.847656 -5.03125 -4.171875 -5.03125 C -5.117188 -5.03125 -5.898438 -4.910156 -6.515625 -4.671875 C -7.128906 -4.441406 -7.4375 -3.988281 -7.4375 -3.3125 C -7.4375 -2.6875 -7.144531 -2.226562 -6.5625 -1.9375 C -5.976562 -1.65625 -5.117188 -1.515625 -3.984375 -1.515625 C -3.128906 -1.515625 -2.441406 -1.609375 -1.921875 -1.796875 C -1.128906 -2.078125 -0.734375 -2.554688 -0.734375 -3.234375 Z M -0.734375 -3.234375 "/>
</g>
<g id="glyph-1-6">
<path d="M -1.28125 -1.03125 L -1.28125 -2.25 L 0 -2.25 L 0 -1.03125 Z M -1.28125 -1.03125 "/>
</g>
<g id="glyph-1-7">
<path d="M 0 -0.375 C -0.71875 -0.414062 -1.34375 -0.566406 -1.875 -0.828125 C -2.414062 -1.085938 -2.90625 -1.59375 -3.34375 -2.34375 L -4 -3.46875 C -4.289062 -3.96875 -4.539062 -4.320312 -4.75 -4.53125 C -5.070312 -4.851562 -5.441406 -5.015625 -5.859375 -5.015625 C -6.347656 -5.015625 -6.734375 -4.863281 -7.015625 -4.5625 C -7.304688 -4.269531 -7.453125 -3.882812 -7.453125 -3.40625 C -7.453125 -2.675781 -7.179688 -2.175781 -6.640625 -1.90625 C -6.335938 -1.75 -5.929688 -1.664062 -5.421875 -1.65625 L -5.421875 -0.578125 C -6.148438 -0.585938 -6.742188 -0.722656 -7.203125 -0.984375 C -8.015625 -1.441406 -8.421875 -2.25 -8.421875 -3.40625 C -8.421875 -4.363281 -8.160156 -5.0625 -7.640625 -5.5 C -7.117188 -5.945312 -6.539062 -6.171875 -5.90625 -6.171875 C -5.238281 -6.171875 -4.664062 -5.9375 -4.1875 -5.46875 C -3.90625 -5.195312 -3.566406 -4.707031 -3.171875 -4 L -2.734375 -3.1875 C -2.523438 -2.8125 -2.320312 -2.515625 -2.125 -2.296875 C -1.789062 -1.898438 -1.414062 -1.648438 -1 -1.546875 L -1 -6.140625 L 0 -6.140625 Z M 0 -0.375 "/>
</g>
<g id="glyph-1-8">
<path d="M -2.140625 -1.484375 C -1.535156 -1.554688 -1.117188 -1.835938 -0.890625 -2.328125 C -0.773438 -2.578125 -0.71875 -2.863281 -0.71875 -3.1875 C -0.71875 -3.8125 -0.914062 -4.273438 -1.3125 -4.578125 C -1.707031 -4.878906 -2.148438 -5.03125 -2.640625 -5.03125 C -3.222656 -5.03125 -3.675781 -4.847656 -4 -4.484375 C -4.320312 -4.128906 -4.484375 -3.703125 -4.484375 -3.203125 C -4.484375 -2.835938 -4.410156 -2.523438 -4.265625 -2.265625 C -4.128906 -2.003906 -3.9375 -1.785156 -3.6875 -1.609375 L -3.734375 -0.6875 L -8.25 -1.328125 L -8.25 -5.6875 L -7.234375 -5.6875 L -7.234375 -2.125 L -4.90625 -1.765625 C -5.050781 -1.960938 -5.160156 -2.148438 -5.234375 -2.328125 C -5.359375 -2.640625 -5.421875 -3 -5.421875 -3.40625 C -5.421875 -4.175781 -5.171875 -4.828125 -4.671875 -5.359375 C -4.179688 -5.898438 -3.554688 -6.171875 -2.796875 -6.171875 C -2.003906 -6.171875 -1.300781 -5.921875 -0.6875 -5.421875 C -0.0820312 -4.929688 0.21875 -4.148438 0.21875 -3.078125 C 0.21875 -2.398438 0.0234375 -1.796875 -0.359375 -1.265625 C -0.742188 -0.742188 -1.335938 -0.453125 -2.140625 -0.390625 Z M -2.140625 -1.484375 "/>
</g>
<g id="glyph-1-9">
<path d="M 0.234375 -3.125 C 0.234375 -2.125 -0.0351562 -1.398438 -0.578125 -0.953125 C -1.128906 -0.503906 -1.796875 -0.28125 -2.578125 -0.28125 L -2.578125 -1.390625 C -2.035156 -1.429688 -1.640625 -1.53125 -1.390625 -1.6875 C -0.953125 -1.96875 -0.734375 -2.460938 -0.734375 -3.171875 C -0.734375 -3.734375 -0.878906 -4.179688 -1.171875 -4.515625 C -1.472656 -4.847656 -1.859375 -5.015625 -2.328125 -5.015625 C -2.898438 -5.015625 -3.300781 -4.835938 -3.53125 -4.484375 C -3.769531 -4.128906 -3.890625 -3.640625 -3.890625 -3.015625 C -3.890625 -2.941406 -3.882812 -2.867188 -3.875 -2.796875 C -3.875 -2.722656 -3.875 -2.648438 -3.875 -2.578125 L -4.8125 -2.578125 C -4.789062 -2.691406 -4.78125 -2.785156 -4.78125 -2.859375 C -4.78125 -2.929688 -4.78125 -3.007812 -4.78125 -3.09375 C -4.78125 -3.488281 -4.84375 -3.8125 -4.96875 -4.0625 C -5.1875 -4.507812 -5.578125 -4.734375 -6.140625 -4.734375 C -6.554688 -4.734375 -6.875 -4.582031 -7.09375 -4.28125 C -7.320312 -3.988281 -7.4375 -3.644531 -7.4375 -3.25 C -7.4375 -2.550781 -7.203125 -2.066406 -6.734375 -1.796875 C -6.484375 -1.648438 -6.117188 -1.566406 -5.640625 -1.546875 L -5.640625 -0.5 C -6.265625 -0.5 -6.796875 -0.625 -7.234375 -0.875 C -8.015625 -1.300781 -8.40625 -2.054688 -8.40625 -3.140625 C -8.40625 -3.992188 -8.210938 -4.65625 -7.828125 -5.125 C -7.453125 -5.59375 -6.898438 -5.828125 -6.171875 -5.828125 C -5.660156 -5.828125 -5.242188 -5.691406 -4.921875 -5.421875 C -4.722656 -5.242188 -4.566406 -5.019531 -4.453125 -4.75 C -4.328125 -5.1875 -4.09375 -5.53125 -3.75 -5.78125 C -3.40625 -6.03125 -2.984375 -6.15625 -2.484375 -6.15625 C -1.679688 -6.15625 -1.023438 -5.890625 -0.515625 -5.359375 C -0.015625 -4.835938 0.234375 -4.09375 0.234375 -3.125 Z M 0.234375 -3.125 "/>
</g>
<g id="glyph-1-10">
<path d="M -2.96875 -3.96875 L -6.78125 -3.96875 L -2.96875 -1.28125 Z M 0 -3.984375 L -2.046875 -3.984375 L -2.046875 -0.3125 L -3.078125 -0.3125 L -8.421875 -4.15625 L -8.421875 -5.046875 L -2.96875 -5.046875 L -2.96875 -6.28125 L -2.046875 -6.28125 L -2.046875 -5.046875 L 0 -5.046875 Z M 0 -3.984375 "/>
</g>
</g>
</defs>
<rect x="-75.6" y="-50.4" width="907.2" height="604.8" fill="rgb(100%, 100%, 100%)" fill-opacity="1"/>
<path fill="none" stroke-width="0.75" stroke-linecap="round" stroke-linejoin="round" stroke="rgb(0%, 0%, 0%)" stroke-opacity="1" stroke-miterlimit="10" d="M 83.734375 112.726562 L 86.851562 73.394531 L 89.96875 83.621094 L 93.085938 85.777344 L 96.203125 175.359375 L 99.324219 90.425781 L 102.441406 115.417969 L 105.558594 79.515625 L 108.675781 73.761719 L 111.792969 110.644531 L 114.910156 177.542969 L 118.03125 77.066406 L 121.148438 73.152344 L 124.265625 72.808594 L 127.382812 89.511719 L 130.5 75.214844 L 133.617188 76.90625 L 136.738281 80.65625 L 139.855469 80.246094 L 142.972656 121.179688 L 146.089844 124.917969 L 149.207031 74.023438 L 152.324219 163.398438 L 155.445312 72.988281 L 158.5625 72.800781 L 161.679688 72.898438 L 164.796875 87.523438 L 167.914062 108.761719 L 171.03125 85.878906 L 174.152344 98.808594 L 177.269531 118.769531 L 180.386719 94.089844 L 183.503906 90.40625 L 186.621094 86.074219 L 189.738281 74.125 L 192.859375 77.210938 L 195.976562 94.414062 L 199.09375 84.871094 L 202.210938 86.1875 L 205.328125 80.417969 L 208.445312 73.875 L 211.566406 74.664062 L 214.683594 74.527344 L 217.800781 87.492188 L 220.917969 73.167969 L 224.035156 83.996094 L 227.152344 97.695312 L 230.273438 80.085938 L 233.390625 74.0625 L 236.507812 72.800781 L 239.625 73.925781 L 242.742188 84.414062 L 245.859375 72.855469 L 248.980469 77.746094 L 252.097656 234.027344 L 255.214844 78.128906 L 258.332031 80.242188 L 261.449219 88.382812 L 264.566406 129.699219 L 267.6875 79.402344 L 270.804688 77.410156 L 273.921875 92.839844 L 277.039062 98.109375 L 280.15625 96.351562 L 283.277344 152.796875 L 286.394531 233.507812 L 289.511719 78.535156 L 292.628906 73.738281 L 295.746094 91.625 L 298.863281 75.042969 L 301.984375 72.898438 L 305.101562 73.933594 L 308.21875 114.722656 L 311.335938 73.585938 L 314.453125 79.480469 L 317.570312 137.820312 L 320.691406 158.042969 L 323.808594 73.398438 L 326.925781 213.332031 L 330.042969 79.621094 L 333.160156 78.351562 L 336.277344 141.148438 L 339.398438 72.898438 L 342.515625 97.363281 L 345.632812 83.914062 L 348.75 78.207031 L 351.867188 74.203125 L 354.984375 90.21875 L 358.105469 119.875 L 361.222656 77.597656 L 364.339844 84.261719 L 367.457031 97.746094 L 370.574219 96.921875 L 373.691406 78.136719 L 376.8125 95.007812 L 379.929688 196.023438 L 383.046875 74.4375 L 386.164062 103.636719 L 389.28125 208.757812 L 392.398438 191.273438 L 395.519531 103.671875 L 398.636719 82.609375 L 401.753906 107.507812 L 404.871094 90.796875 L 407.988281 105.285156 L 411.105469 74.007812 L 414.226562 98.394531 L 417.34375 83.035156 L 420.460938 96.59375 L 423.578125 79.832031 L 426.695312 416.800781 L 429.8125 84.542969 L 432.933594 120.449219 L 436.050781 83.519531 L 439.167969 122.214844 L 442.285156 74.640625 L 445.402344 84.046875 L 448.519531 135.074219 L 451.640625 185.121094 L 454.757812 104.816406 L 457.875 76.066406 L 460.992188 76.023438 L 464.109375 72.804688 L 467.226562 137.535156 L 470.347656 95.125 L 473.464844 122.726562 L 476.582031 131.375 L 479.699219 84.539062 L 482.816406 124.257812 L 485.933594 92.21875 L 489.054688 116.457031 L 492.171875 80.46875 L 495.289062 168.46875 L 498.40625 89.957031 L 501.523438 73.601562 L 504.640625 106.429688 L 507.761719 74.03125 L 510.878906 72.988281 L 513.996094 96.574219 L 517.113281 72.824219 L 520.230469 77.300781 L 523.347656 82.277344 L 526.46875 78.769531 L 529.585938 72.917969 L 532.703125 82.800781 L 535.820312 75.257812 L 538.9375 102.925781 L 542.054688 91.066406 L 545.175781 73.066406 L 548.292969 106.789062 L 551.410156 73.867188 L 554.527344 74.257812 L 557.644531 77.023438 L 560.761719 84.121094 L 563.882812 221.304688 L 567 81.214844 L 570.117188 120.460938 L 573.234375 116.09375 L 576.351562 145.71875 L 579.472656 72.867188 L 582.589844 150.949219 L 585.707031 99.890625 L 588.824219 124.191406 L 591.941406 174.222656 L 595.058594 161.203125 L 598.179688 80.925781 L 601.296875 153.132812 L 604.414062 90.03125 L 607.53125 79.460938 L 610.648438 102.445312 L 613.765625 72.820312 L 616.886719 74.886719 L 620.003906 132.242188 L 623.121094 124.09375 L 626.238281 249.140625 L 629.355469 80 L 632.472656 103.621094 L 635.59375 110.953125 L 638.710938 107.964844 L 641.828125 261.832031 L 644.945312 79.246094 L 648.0625 107.023438 L 651.179688 91.035156 L 654.300781 120.675781 L 657.417969 76.707031 L 660.535156 115.15625 L 663.652344 74.117188 L 666.769531 77.742188 L 669.886719 122.972656 L 673.007812 76.746094 L 676.125 79.820312 L 679.242188 79.847656 L 682.359375 204.886719 L 685.476562 73.664062 L 688.59375 80.441406 L 691.714844 96.9375 L 694.832031 82.957031 L 697.949219 90.96875 L 701.066406 73.390625 "/>
<g fill="rgb(0%, 0%, 0%)" fill-opacity="1">
<use xlink:href="#glyph-0-1" x="379.398438" y="484.521484"/>
<use xlink:href="#glyph-0-2" x="386.398438" y="484.521484"/>
<use xlink:href="#glyph-0-3" x="388.398438" y="484.521484"/>
<use xlink:href="#glyph-0-4" x="398.398438" y="484.521484"/>
</g>
<g fill="rgb(0%, 0%, 0%)" fill-opacity="1">
<use xlink:href="#glyph-1-1" x="12.201172" y="256.300781"/>
<use xlink:href="#glyph-1-2" x="12.201172" y="249.300781"/>
<use xlink:href="#glyph-1-3" x="12.201172" y="242.300781"/>
<use xlink:href="#glyph-1-4" x="12.201172" y="236.300781"/>
</g>
<path fill="none" stroke-width="0.75" stroke-linecap="round" stroke-linejoin="round" stroke="rgb(0%, 0%, 0%)" stroke-opacity="1" stroke-miterlimit="10" d="M 80.617188 430.558594 L 704.183594 430.558594 "/>
<path fill="none" stroke-width="0.75" stroke-linecap="round" stroke-linejoin="round" stroke="rgb(0%, 0%, 0%)" stroke-opacity="1" stroke-miterlimit="10" d="M 80.617188 430.558594 L 80.617188 437.761719 "/>
<path fill="none" stroke-width="0.75" stroke-linecap="round" stroke-linejoin="round" stroke="rgb(0%, 0%, 0%)" stroke-opacity="1" stroke-miterlimit="10" d="M 236.507812 430.558594 L 236.507812 437.761719 "/>
<path fill="none" stroke-width="0.75" stroke-linecap="round" stroke-linejoin="round" stroke="rgb(0%, 0%, 0%)" stroke-opacity="1" stroke-miterlimit="10" d="M 392.398438 430.558594 L 392.398438 437.761719 "/>
<path fill="none" stroke-width="0.75" stroke-linecap="round" stroke-linejoin="round" stroke="rgb(0%, 0%, 0%)" stroke-opacity="1" stroke-miterlimit="10" d="M 548.292969 430.558594 L 548.292969 437.761719 "/>
<path fill="none" stroke-width="0.75" stroke-linecap="round" stroke-linejoin="round" stroke="rgb(0%, 0%, 0%)" stroke-opacity="1" stroke-miterlimit="10" d="M 704.183594 430.558594 L 704.183594 437.761719 "/>
<g fill="rgb(0%, 0%, 0%)" fill-opacity="1">
<use xlink:href="#glyph-0-5" x="77.117188" y="455.720703"/>
</g>
<g fill="rgb(0%, 0%, 0%)" fill-opacity="1">
<use xlink:href="#glyph-0-6" x="229.507812" y="455.720703"/>
<use xlink:href="#glyph-0-5" x="236.507812" y="455.720703"/>
</g>
<g fill="rgb(0%, 0%, 0%)" fill-opacity="1">
<use xlink:href="#glyph-0-7" x="381.898438" y="455.720703"/>
<use xlink:href="#glyph-0-5" x="388.898438" y="455.720703"/>
<use xlink:href="#glyph-0-5" x="395.898438" y="455.720703"/>
</g>
<g fill="rgb(0%, 0%, 0%)" fill-opacity="1">
<use xlink:href="#glyph-0-7" x="537.792969" y="455.720703"/>
<use xlink:href="#glyph-0-6" x="544.792969" y="455.720703"/>
<use xlink:href="#glyph-0-5" x="551.792969" y="455.720703"/>
</g>
<g fill="rgb(0%, 0%, 0%)" fill-opacity="1">
<use xlink:href="#glyph-0-8" x="693.683594" y="455.720703"/>
<use xlink:href="#glyph-0-5" x="700.683594" y="455.720703"/>
<use xlink:href="#glyph-0-5" x="707.683594" y="455.720703"/>
</g>
<path fill="none" stroke-width="0.75" stroke-linecap="round" stroke-linejoin="round" stroke="rgb(0%, 0%, 0%)" stroke-opacity="1" stroke-miterlimit="10" d="M 59.039062 415.707031 L 59.039062 105.253906 "/>
<path fill="none" stroke-width="0.75" stroke-linecap="round" stroke-linejoin="round" stroke="rgb(0%, 0%, 0%)" stroke-opacity="1" stroke-miterlimit="10" d="M 59.039062 415.707031 L 51.839844 415.707031 "/>
<path fill="none" stroke-width="0.75" stroke-linecap="round" stroke-linejoin="round" stroke="rgb(0%, 0%, 0%)" stroke-opacity="1" stroke-miterlimit="10" d="M 59.039062 338.09375 L 51.839844 338.09375 "/>
<path fill="none" stroke-width="0.75" stroke-linecap="round" stroke-linejoin="round" stroke="rgb(0%, 0%, 0%)" stroke-opacity="1" stroke-miterlimit="10" d="M 59.039062 260.480469 L 51.839844 260.480469 "/>
<path fill="none" stroke-width="0.75" stroke-linecap="round" stroke-linejoin="round" stroke="rgb(0%, 0%, 0%)" stroke-opacity="1" stroke-miterlimit="10" d="M 59.039062 182.867188 L 51.839844 182.867188 "/>
<path fill="none" stroke-width="0.75" stroke-linecap="round" stroke-linejoin="round" stroke="rgb(0%, 0%, 0%)" stroke-opacity="1" stroke-miterlimit="10" d="M 59.039062 105.253906 L 51.839844 105.253906 "/>
<g fill="rgb(0%, 0%, 0%)" fill-opacity="1">
<use xlink:href="#glyph-1-5" x="41.001953" y="434.707031"/>
<use xlink:href="#glyph-1-6" x="41.001953" y="427.707031"/>
<use xlink:href="#glyph-1-5" x="41.001953" y="424.707031"/>
<use xlink:href="#glyph-1-5" x="41.001953" y="417.707031"/>
<use xlink:href="#glyph-1-7" x="41.001953" y="410.707031"/>
<use xlink:href="#glyph-1-5" x="41.001953" y="403.707031"/>
</g>
<g fill="rgb(0%, 0%, 0%)" fill-opacity="1">
<use xlink:href="#glyph-1-5" x="41.001953" y="357.09375"/>
<use xlink:href="#glyph-1-6" x="41.001953" y="350.09375"/>
<use xlink:href="#glyph-1-5" x="41.001953" y="347.09375"/>
<use xlink:href="#glyph-1-5" x="41.001953" y="340.09375"/>
<use xlink:href="#glyph-1-7" x="41.001953" y="333.09375"/>
<use xlink:href="#glyph-1-8" x="41.001953" y="326.09375"/>
</g>
<g fill="rgb(0%, 0%, 0%)" fill-opacity="1">
<use xlink:href="#glyph-1-5" x="41.001953" y="279.480469"/>
<use xlink:href="#glyph-1-6" x="41.001953" y="272.480469"/>
<use xlink:href="#glyph-1-5" x="41.001953" y="269.480469"/>
<use xlink:href="#glyph-1-5" x="41.001953" y="262.480469"/>
<use xlink:href="#glyph-1-9" x="41.001953" y="255.480469"/>
<use xlink:href="#glyph-1-5" x="41.001953" y="248.480469"/>
</g>
<g fill="rgb(0%, 0%, 0%)" fill-opacity="1">
<use xlink:href="#glyph-1-5" x="41.001953" y="201.867188"/>
<use xlink:href="#glyph-1-6" x="41.001953" y="194.867188"/>
<use xlink:href="#glyph-1-5" x="41.001953" y="191.867188"/>
<use xlink:href="#glyph-1-5" x="41.001953" y="184.867188"/>
<use xlink:href="#glyph-1-9" x="41.001953" y="177.867188"/>
<use xlink:href="#glyph-1-8" x="41.001953" y="170.867188"/>
</g>
<g fill="rgb(0%, 0%, 0%)" fill-opacity="1">
<use xlink:href="#glyph-1-5" x="41.001953" y="124.253906"/>
<use xlink:href="#glyph-1-6" x="41.001953" y="117.253906"/>
<use xlink:href="#glyph-1-5" x="41.001953" y="114.253906"/>
<use xlink:href="#glyph-1-5" x="41.001953" y="107.253906"/>
<use xlink:href="#glyph-1-10" x="41.001953" y="100.253906"/>
<use xlink:href="#glyph-1-5" x="41.001953" y="93.253906"/>
</g>
<path fill="none" stroke-width="0.75" stroke-linecap="round" stroke-linejoin="round" stroke="rgb(0%, 0%, 0%)" stroke-opacity="1" stroke-miterlimit="10" d="M 59.039062 430.558594 L 725.761719 430.558594 L 725.761719 59.039062 L 59.039062 59.039062 Z M 59.039062 430.558594 "/>
</svg>
